<?xml version="1.0" encoding="utf-8"?>
<!-- Generator: Adobe Illustrator 20.0.0, SVG Export Plug-In . SVG Version: 6.00 Build 0)  -->
<svg version="1.1" id="Layer_1" xmlns="http://www.w3.org/2000/svg" xmlns:xlink="http://www.w3.org/1999/xlink" x="0px" y="0px"
	 viewBox="0 0 480 480" style="enable-background:new 0 0 480 480;" xml:space="preserve">
<style type="text/css">
	.st0{stroke:#000000;stroke-miterlimit:10;}
	.st1{fill:#5D5D5D;}
	.st2{fill:#B9FF97;stroke:#FFFFFF;stroke-miterlimit:10;}
</style>
<circle class="st0" cx="240" cy="240" r="207"/>
<path class="st1" d="M442.2,192.9c-0.6-2.6-1.3-5.2-2-7.8l-93.4,49.3l-0.1,0.2c-15.3,8.3-30.6,16.6-45.9,24.9
	c-3.6,2-7.2,3.9-10.8,5.9c-0.6,0.3-1.3,0.2-2,0.3c0-0.6-0.2-1.3-0.1-1.9c2.1-6.8,4.3-13.6,6.4-20.4c5.2-16.3,10.4-32.7,15.7-49
	c3.1-9.8,6.2-19.6,9.4-29.3c0.3-0.9,0.6-1.8,0.9-2.7l0.1,0l0.3-1.1c0.1-0.3,0.2-0.6,0.3-0.9c0,0,0,0,0,0l29.9-95.3
	c-2.2-1.4-4.3-2.7-6.6-4l-30.7,99l0.2,0.1c-2.2,6.6-4.4,13.2-6.5,19.7c-4.3,13.1-8.6,26.2-12.9,39.4c-0.3,0.9-1,1.7-1.6,2.6
	c-0.7-0.8-1.5-1.5-1.9-2.4c-16.3-30.7-32.5-61.4-48.8-92.1L197,38.2c-3.3,0.7-6.5,1.5-9.7,2.4l38.5,69.7
	c11.1,22.1,26,51.7,31.7,62.6c2.6,5.1,5.3,10.1,7.9,15.2c0.3,0.6,0.2,1.4,0.4,2.1c-0.7,0-1.4,0.2-2.1,0c-8.7-2.8-17.5-5.7-26.2-8.5
	c-17.8-5.9-35.6-11.7-53.5-17.6c-6.5-2.1-13-4.3-19.5-6.5l-94.4-33.6c-1.9,2.8-3.8,5.7-5.5,8.6l93,30.4c-0.1,0.1-0.1,0.1-0.2,0.2
	c13.6,4.4,27.2,8.8,40.8,13.2c8.6,2.8,17.3,5.6,25.9,8.4c0.3,0.1,0.7,0.2,1,0.3c0.6,0.4,1.1,0.8,1.7,1.2c-0.5,0.5-0.9,1.2-1.5,1.5
	c-9.5,4.7-19,9.4-28.5,14.1c-17.9,8.8-35.7,17.5-53.6,26.2L37.8,278.5c0.4,2.2,0.9,4.5,1.4,6.7l89.7-43.1c0,0.1,0,0.1,0,0.2
	c14-6.9,28-13.8,42.1-20.6c5.5-2.7,11-5.5,16.6-8.1c0.8-0.4,1.8-0.4,2.7-0.6c0,0.9,0.1,1.9-0.2,2.8c-2.1,7.2-4.4,14.3-6.5,21.4
	c-3.3,10.9-6.6,21.7-9.8,32.6c-2.7,9-5.5,18-8.2,27c-0.2,0.6-0.4,1.2-0.6,1.8l-36.4,115.2c2.7,1.8,5.5,3.5,8.3,5.1l29.5-97.9
	c0,0,0.1,0.1,0.1,0.1c1.7-5.5,3.5-11,5.2-16.6c2.6-8.6,5.2-17.3,7.7-25.9c2.4-8,4.8-16,7.3-24.1c0.1-0.4,0.2-0.9,0.5-1.3
	c0.3-0.4,0.7-1,1-0.9c0.5,0.1,1,0.5,1.2,0.9c1.2,2,2.2,4.1,3.3,6.2c12.2,22.8,24.4,45.7,36.6,68.5l57.9,113.9
	c3.2-0.7,6.3-1.5,9.4-2.4l-48-90.6c0.1,0,0.2,0,0.2,0c-5.1-9.5-10.2-18.9-15.3-28.4l-8.5-16.1l-0.3-0.2c-0.6-1.1-1.2-2.3-1.8-3.4
	c-1.7-3.2-3.4-6.3-5-9.6c-0.3-0.6-0.3-1.4-0.4-2c0.7-0.1,1.5-0.4,2.2-0.2c6.1,1.6,12.2,3.4,18.3,5c10.4,2.9,20.9,5.7,31.3,8.6
	c1.3,0.3,2.5,0.7,3.8,1l-0.4,0L419.2,345c1.6-2.8,3.2-5.6,4.7-8.5l-99.2-25.9c0,0,0.1-0.1,0.1-0.1c-11.4-3-22.7-6-34.1-9
	c-10.3-2.7-20.5-5.4-30.8-8.1c-0.9-0.2-1.9-0.4-2.8-0.7c-0.7-0.3-1.2-0.8-1.8-1.3c0.5-0.5,0.9-1.1,1.5-1.5
	c5.4-2.8,10.8-5.6,16.2-8.4c22.8-11.8,45.6-23.6,68.4-35.4l-0.1,0.2L442.2,192.9z"/>
<path class="st2" d="M0,0v480h480V0H0z M240,447c-114.3,0-207-92.7-207-207S125.7,33,240,33s207,92.7,207,207S354.3,447,240,447z"/>
</svg>
