<?xml version="1.0" encoding="iso-8859-1"?>
<!-- Generator: Adobe Illustrator 20.0.0, SVG Export Plug-In . SVG Version: 6.00 Build 0)  -->
<svg version="1.1" id="Layer_1" xmlns="http://www.w3.org/2000/svg" xmlns:xlink="http://www.w3.org/1999/xlink" x="0px" y="0px"
	 viewBox="0 0 638 354" style="enable-background:new 0 0 638 354;" xml:space="preserve">
<circle style="fill:#FFFFFF;stroke:#5D5D5D;stroke-miterlimit:10;" cx="993.691" cy="-122.418" r="62"/>
<g style="display:none;">
	<g style="display:inline;">
		<path style="fill:#FFFFFF;" d="M89.939,278.764h38.424v27.139H57.896V182.627h32.043V278.764z"/>
		<path style="fill:#FFFFFF;" d="M183.948,209.768v20.598h36.135v27.142h-36.135v21.255h38.095v27.139h-70.138V182.627h70.138
			v27.142L183.948,209.768L183.948,209.768z"/>
		<path style="fill:#FFFFFF;" d="M249.388,182.627h32.043l58.696,75.371h0.326v-75.371h32.046v123.276h-32.046l-58.694-75.536
			h-0.328v75.536h-32.043L249.388,182.627L249.388,182.627z"/>
		<path style="fill:#FFFFFF;" d="M480.406,189.494l-12.754,24.853c-2.943-2.398-6.242-4.333-9.892-5.805
			c-3.652-1.472-7.44-2.207-11.363-2.207c-0.546,0-1.143,0.027-1.798,0.081c-0.654,0.057-1.309,0.193-1.963,0.41
			c-2.509,0.546-4.798,1.635-6.867,3.269c-2.072,1.635-3.106,3.817-3.106,6.541c0,2.615,0.983,4.714,2.943,6.294
			c1.963,1.58,4.087,2.859,6.376,3.842c0.872,0.326,1.719,0.627,2.536,0.899c0.817,0.274,1.607,0.519,2.37,0.736l8.176,2.289
			c8.608,2.615,15.83,6.405,21.663,11.363c5.83,4.961,8.746,12.452,8.746,22.48c0,0.437,0,0.874,0,1.309c0,0.437,0,0.874,0,1.306
			c-0.22,5.669-1.254,11.2-3.106,16.596c-1.854,5.395-5.067,10.055-9.645,13.978c-4.146,3.598-8.83,6.269-14.062,8.013
			c-5.232,1.741-10.573,2.832-16.023,3.269c-0.872,0-1.716,0.025-2.533,0.081c-0.817,0.054-1.61,0.081-2.37,0.081
			c-7.741,0-15.314-1.225-22.727-3.679c-7.413-2.452-14.28-5.857-20.601-10.218l13.734-25.996c4.032,3.598,8.42,6.65,13.161,9.156
			c4.743,2.509,9.837,3.761,15.287,3.761c0.217,0,0.435,0,0.654,0c0.217,0,0.435,0,0.654,0c3.598-0.217,6.867-1.333,9.81-3.351
			s4.415-5.042,4.415-9.074c0-3.049-1.227-5.504-3.679-7.358c-2.452-1.852-5.208-3.324-8.257-4.415
			c-1.309-0.432-2.615-0.842-3.924-1.225c-1.309-0.38-2.509-0.736-3.598-1.062c-0.22-0.109-0.464-0.19-0.736-0.247
			c-0.272-0.054-0.519-0.136-0.736-0.244c-9.702-2.724-17.44-6.213-23.216-10.465c-5.778-4.25-8.665-12.205-8.665-23.87
			c0-12.534,4.005-22.561,12.015-30.083c8.013-7.521,18.176-11.282,30.492-11.282c2.506,0,5.069,0.138,7.684,0.41
			c2.617,0.272,5.232,0.736,7.85,1.388c4.141,0.874,8.2,2.02,12.178,3.435c3.978,1.417,7.603,3.052,10.874,4.904v-0.163
			L480.406,189.494L480.406,189.494z"/>
	</g>
	<g style="display:inline;">
		<path style="fill:#FFFFFF;" d="M132.776,44.773l-12.752,24.851c-2.943-2.397-6.242-4.333-9.892-5.803
			c-3.652-1.471-7.439-2.208-11.363-2.208c-0.546,0-1.144,0.027-1.798,0.083s-1.308,0.189-1.962,0.408
			c-2.508,0.544-4.798,1.633-6.868,3.27c-2.072,1.633-3.106,3.815-3.106,6.537c0,2.616,0.981,4.718,2.943,6.295
			c1.962,1.584,4.087,2.862,6.376,3.845c0.872,0.325,1.716,0.627,2.535,0.896c0.817,0.276,1.607,0.521,2.371,0.737l8.174,2.288
			c8.609,2.616,15.832,6.404,21.663,11.365c5.83,4.96,8.747,12.454,8.747,22.48c0,0.438,0,0.873,0,1.308c0,0.438,0,0.873,0,1.308
			c-0.219,5.667-1.253,11.199-3.106,16.594c-1.854,5.395-5.068,10.057-9.646,13.981c-4.143,3.596-8.828,6.268-14.061,8.011
			s-10.574,2.832-16.023,3.27c-0.873,0-1.716,0.023-2.535,0.08c-0.817,0.053-1.609,0.083-2.371,0.083
			c-7.741,0-15.314-1.225-22.726-3.679c-7.414-2.454-14.28-5.857-20.599-10.219l13.733-25.996c4.031,3.599,8.42,6.65,13.161,9.157
			c4.741,2.51,9.836,3.762,15.287,3.762c0.217,0,0.435,0,0.654,0c0.217,0,0.433,0,0.654,0c3.597-0.219,6.866-1.335,9.809-3.353
			c2.943-2.015,4.414-5.04,4.414-9.074c0-3.051-1.225-5.501-3.679-7.357c-2.452-1.853-5.206-3.323-8.255-4.416
			c-1.308-0.432-2.616-0.843-3.924-1.225s-2.508-0.737-3.597-1.062c-0.219-0.106-0.465-0.189-0.735-0.246
			c-0.274-0.053-0.518-0.136-0.735-0.246c-9.703-2.722-17.44-6.212-23.217-10.462c-5.779-4.253-8.665-12.208-8.665-23.871
			c0-12.533,4.006-22.563,12.017-30.083S81.872,34.8,94.192,34.8c2.505,0,5.068,0.136,7.684,0.408
			c2.615,0.272,5.231,0.737,7.847,1.391c4.142,0.873,8.201,2.015,12.18,3.433c3.979,1.418,7.603,3.051,10.873,4.904V44.773z"/>
		<path style="fill:#FFFFFF;" d="M202.097,161.182h-32.045V65.046h-26.486V37.908h85.017v27.138h-26.486V161.182z"/>
		<path style="fill:#FFFFFF;" d="M448.973,110.66l38.749,50.522H447.83l-30.248-47.414h-0.327v47.414H385.21V37.908h47.905
			c12.205,0.11,22.399,3.187,30.573,9.236c8.176,6.049,12.263,15.671,12.263,28.858c0,8.499-2.317,16.049-6.949,22.643
			c-4.635,6.597-11.31,10.654-20.028,12.181L448.973,110.66L448.973,110.66z M417.255,93.167h3.106
			c0.544,0.11,1.089,0.163,1.635,0.163c0.544,0,1.036,0,1.472,0c4.794-0.216,9.182-1.331,13.161-3.35
			c3.977-2.015,5.968-6.023,5.968-12.019c0-6.056-1.99-10.103-5.968-12.142c-3.979-2.039-8.367-3.171-13.161-3.39
			c-0.437,0-0.928,0-1.472,0c-0.546,0-1.091,0-1.635,0h-3.106V93.167z"/>
		<path style="fill:#FFFFFF;" d="M476.277,37.908h38.422l23.053,33.516l23.053-33.516h38.422l-45.452,64.087v59.187H521.73v-59.187
			L476.277,37.908z"/>
		<g id="_x38_aTFDm.tif_1_">
			<g>
				<path style="fill:#FFFFFF;" d="M243.475,120.336c-0.469-1.521-0.92-2.884-1.309-4.263c-1.807-6.396-2.515-12.925-2.201-19.554
					c0.304-6.41,1.601-12.626,3.862-18.64c0.225-0.598,0.53-0.79,1.133-0.81c8.154-0.28,16.308-0.577,24.462-0.874
					c4.892-0.178,9.784-0.363,14.676-0.544c0.185-0.007,0.378-0.043,0.553-0.003c0.367,0.083,0.724,0.207,1.086,0.314
					c-0.157,0.34-0.237,0.753-0.482,1.009c-3.947,4.15-7.909,8.286-11.879,12.413c-9.051,9.408-18.107,18.811-27.166,28.212
					C245.361,118.475,244.484,119.326,243.475,120.336z"/>
				<path style="fill:#FFFFFF;" d="M323.923,157.296c-1.66,0.525-3.306,1.098-4.982,1.565c-7.405,2.064-14.95,2.687-22.594,2.009
					c-5.264-0.467-10.391-1.612-15.378-3.385c-0.644-0.229-0.843-0.589-0.869-1.209c-0.145-3.381-0.29-6.762-0.476-10.14
					c-0.266-4.856-0.573-9.71-0.852-14.565c-0.26-4.517-0.506-9.035-0.756-13.553c-0.014-0.246-0.059-0.504-0.005-0.736
					c0.058-0.245,0.187-0.629,0.341-0.659c0.249-0.048,0.603,0.075,0.809,0.249c0.964,0.814,1.893,1.67,2.833,2.513
					c13.734,12.31,27.467,24.621,41.207,36.923c0.267,0.239,0.625,0.378,0.941,0.563
					C324.069,157.013,323.996,157.154,323.923,157.296z"/>
				<path style="fill:#FFFFFF;" d="M328.904,43.795c1.869,1.015,3.603,1.872,5.254,2.866c10.843,6.529,19.032,15.48,24.504,26.912
					c0.353,0.737,0.179,1.173-0.288,1.701c-7.142,8.064-14.276,16.136-21.411,24.206c-1.468,1.66-2.923,3.332-4.416,4.969
					c-0.234,0.257-0.64,0.356-0.967,0.528c-0.134-0.319-0.372-0.633-0.388-0.958c-0.185-3.843-0.343-7.687-0.498-11.53
					c-0.374-9.256-0.74-18.513-1.113-27.769c-0.223-5.535-0.462-11.07-0.67-16.606C328.86,46.766,328.904,45.413,328.904,43.795z"/>
				<path style="fill:#FFFFFF;" d="M281.012,41.43c2.424-0.662,4.832-1.392,7.276-1.972c5.425-1.288,10.942-1.711,16.505-1.498
					c6.793,0.26,13.367,1.647,19.72,4.049c0.312,0.118,0.592,0.754,0.607,1.159c0.178,4.923,0.289,9.848,0.445,14.772
					c0.235,7.449,0.499,14.897,0.721,22.346c0.016,0.536-0.21,1.079-0.323,1.618c-0.478-0.282-1.021-0.492-1.425-0.857
					c-14.019-12.643-28.024-25.301-42.033-37.955c-0.497-0.449-1.002-0.889-1.504-1.333C281.005,41.649,281.008,41.54,281.012,41.43
					z"/>
				<path style="fill:#FFFFFF;" d="M245.958,72.933c0.609-1.164,1.102-2.179,1.658-3.158c6.656-11.716,16.088-20.432,28.294-26.145
					c0.46-0.216,0.805-0.364,1.298,0.089c7.214,6.62,14.455,13.21,21.691,19.807c2.275,2.075,4.56,4.139,6.818,6.233
					c0.263,0.244,0.378,0.646,0.562,0.975c-0.351,0.131-0.697,0.365-1.053,0.379c-4.954,0.188-9.909,0.353-14.864,0.509
					c-10.126,0.318-20.251,0.63-30.377,0.939c-4.278,0.131-8.556,0.249-12.835,0.371C246.822,72.941,246.494,72.933,245.958,72.933z
					"/>
				<path style="fill:#FFFFFF;" d="M275.643,155.369c-2.065-1.123-3.967-2.061-5.773-3.157c-9.52-5.781-17.03-13.516-22.424-23.275
					c-0.774-1.4-1.432-2.863-2.18-4.277c-0.249-0.471-0.153-0.771,0.196-1.133c6.194-6.431,12.379-12.871,18.564-19.311
					c2.303-2.398,4.59-4.812,6.913-7.192c0.335-0.343,0.829-0.532,1.25-0.792c0.149,0.476,0.402,0.946,0.431,1.429
					c0.239,4.025,0.429,8.053,0.649,12.08c0.334,6.116,0.685,12.232,1.02,18.348c0.278,5.071,0.551,10.143,0.813,15.216
					c0.192,3.719,0.363,7.439,0.542,11.158C275.652,154.674,275.643,154.886,275.643,155.369z"/>
				<path style="fill:#FFFFFF;" d="M360.982,78.855c0.722,2.762,1.571,5.499,2.144,8.292c2.28,11.111,1.545,22.039-2.199,32.759
					c-0.202,0.577-0.457,0.787-1.088,0.841c-6.777,0.586-13.55,1.217-20.324,1.834c-5.701,0.52-11.402,1.037-17.103,1.557
					c-0.521,0.048-1.043,0.164-1.56,0.142c-0.389-0.017-0.77-0.205-1.155-0.317c0.156-0.341,0.239-0.748,0.479-1.012
					c2.212-2.442,4.452-4.859,6.682-7.284c10.591-11.516,21.182-23.031,31.772-34.548c0.682-0.742,1.357-1.491,2.036-2.236
					C360.77,78.874,360.876,78.865,360.982,78.855z"/>
				<path style="fill:#FFFFFF;" d="M358.918,124.9c-0.32,0.665-0.584,1.242-0.872,1.808c-5.871,11.571-14.491,20.492-25.834,26.782
					c-1.13,0.626-2.292,1.201-3.47,1.731c-0.251,0.113-0.739,0.048-0.943-0.132c-7.618-6.771-15.217-13.563-22.815-20.357
					c-1.446-1.293-2.885-2.596-4.3-3.923c-0.266-0.249-0.404-0.635-0.6-0.958c0.359-0.178,0.707-0.483,1.079-0.516
					c3.404-0.301,6.812-0.551,10.218-0.824c5.83-0.468,11.658-0.944,17.488-1.411c4.909-0.393,9.82-0.775,14.729-1.167
					c4.265-0.34,8.529-0.697,12.795-1.023C357.177,124.848,357.968,124.9,358.918,124.9z"/>
			</g>
		</g>
	</g>
</g>
<g id="_x38_aTFDm.tif_2_">
	<g>
		<path style="fill:#FFFFFF;" d="M260.319-142.184c-0.469-1.521-0.92-2.884-1.309-4.263c-1.807-6.396-2.515-12.925-2.201-19.554
			c0.304-6.41,1.601-12.626,3.862-18.64c0.225-0.598,0.53-0.79,1.133-0.81c8.154-0.28,16.308-0.577,24.462-0.874
			c4.892-0.178,9.784-0.363,14.676-0.544c0.185-0.007,0.378-0.043,0.553-0.003c0.367,0.083,0.724,0.207,1.086,0.314
			c-0.157,0.34-0.237,0.753-0.482,1.009c-3.947,4.15-7.909,8.286-11.879,12.413c-9.051,9.408-18.107,18.811-27.166,28.212
			C262.205-144.045,261.328-143.194,260.319-142.184z"/>
		<path style="fill:#FFFFFF;" d="M340.767-105.224c-1.66,0.525-3.306,1.098-4.982,1.565c-7.405,2.064-14.95,2.687-22.594,2.009
			c-5.264-0.467-10.391-1.612-15.378-3.385c-0.644-0.229-0.843-0.589-0.869-1.209c-0.145-3.381-0.29-6.762-0.476-10.14
			c-0.266-4.856-0.573-9.71-0.852-14.565c-0.26-4.517-0.506-9.035-0.756-13.553c-0.014-0.246-0.059-0.504-0.005-0.736
			c0.058-0.245,0.187-0.629,0.341-0.659c0.249-0.048,0.603,0.075,0.809,0.249c0.964,0.814,1.893,1.67,2.833,2.513
			c13.734,12.31,27.467,24.621,41.207,36.923c0.267,0.239,0.625,0.378,0.941,0.563C340.913-105.507,340.84-105.366,340.767-105.224z
			"/>
		<path style="fill:#FFFFFF;" d="M345.748-218.725c1.869,1.015,3.603,1.872,5.254,2.866c10.843,6.529,19.032,15.48,24.504,26.912
			c0.353,0.737,0.179,1.173-0.288,1.701c-7.142,8.064-14.276,16.136-21.411,24.206c-1.468,1.66-2.923,3.332-4.416,4.969
			c-0.234,0.257-0.64,0.356-0.967,0.528c-0.134-0.319-0.372-0.633-0.388-0.958c-0.185-3.843-0.343-7.687-0.498-11.53
			c-0.374-9.256-0.74-18.513-1.113-27.769c-0.223-5.535-0.462-11.07-0.67-16.606C345.704-215.754,345.748-217.107,345.748-218.725z"
			/>
		<path style="fill:#FFFFFF;" d="M297.856-221.09c2.424-0.662,4.832-1.392,7.276-1.972c5.425-1.288,10.942-1.711,16.505-1.498
			c6.793,0.26,13.367,1.647,19.72,4.049c0.312,0.118,0.592,0.754,0.607,1.159c0.178,4.923,0.289,9.848,0.445,14.772
			c0.235,7.449,0.499,14.897,0.721,22.346c0.016,0.536-0.21,1.079-0.323,1.618c-0.478-0.282-1.021-0.492-1.425-0.857
			c-14.019-12.643-28.024-25.301-42.033-37.955c-0.497-0.449-1.002-0.889-1.504-1.333
			C297.849-220.871,297.852-220.98,297.856-221.09z"/>
		<path style="fill:#FFFFFF;" d="M262.802-189.587c0.609-1.164,1.102-2.179,1.658-3.158c6.656-11.716,16.088-20.432,28.294-26.145
			c0.46-0.216,0.805-0.364,1.298,0.089c7.214,6.62,14.455,13.21,21.691,19.807c2.275,2.075,4.56,4.139,6.818,6.233
			c0.263,0.244,0.378,0.646,0.562,0.975c-0.351,0.131-0.697,0.365-1.053,0.379c-4.954,0.188-9.909,0.353-14.864,0.509
			c-10.126,0.318-20.251,0.63-30.377,0.939c-4.278,0.131-8.556,0.249-12.835,0.371C263.666-189.579,263.338-189.587,262.802-189.587
			z"/>
		<path style="fill:#FFFFFF;" d="M292.487-107.151c-2.065-1.123-3.967-2.061-5.773-3.157c-9.52-5.781-17.03-13.516-22.424-23.275
			c-0.774-1.4-1.432-2.863-2.18-4.277c-0.249-0.471-0.153-0.771,0.196-1.133c6.194-6.431,12.379-12.871,18.564-19.311
			c2.303-2.398,4.59-4.812,6.913-7.192c0.335-0.343,0.829-0.532,1.25-0.792c0.149,0.476,0.402,0.946,0.431,1.429
			c0.239,4.025,0.429,8.053,0.649,12.08c0.334,6.116,0.685,12.232,1.02,18.348c0.278,5.071,0.551,10.143,0.813,15.216
			c0.192,3.719,0.363,7.439,0.542,11.158C292.496-107.846,292.487-107.634,292.487-107.151z"/>
		<path style="fill:#FFFFFF;" d="M377.826-183.665c0.722,2.762,1.571,5.499,2.144,8.292c2.28,11.111,1.545,22.039-2.199,32.759
			c-0.202,0.577-0.457,0.787-1.088,0.841c-6.777,0.586-13.55,1.217-20.324,1.834c-5.701,0.52-11.402,1.037-17.103,1.557
			c-0.521,0.048-1.043,0.164-1.56,0.142c-0.389-0.017-0.77-0.205-1.155-0.317c0.156-0.341,0.239-0.748,0.479-1.012
			c2.212-2.442,4.452-4.859,6.682-7.284c10.591-11.516,21.182-23.031,31.772-34.548c0.682-0.742,1.357-1.491,2.036-2.236
			C377.614-183.646,377.72-183.655,377.826-183.665z"/>
		<path style="fill:#FFFFFF;" d="M375.762-137.62c-0.32,0.665-0.584,1.242-0.872,1.808c-5.871,11.571-14.491,20.492-25.834,26.782
			c-1.13,0.626-2.292,1.201-3.47,1.731c-0.251,0.113-0.739,0.048-0.943-0.132c-7.618-6.771-15.217-13.563-22.815-20.357
			c-1.446-1.293-2.885-2.596-4.3-3.923c-0.266-0.249-0.404-0.635-0.6-0.958c0.359-0.178,0.707-0.483,1.079-0.516
			c3.404-0.301,6.812-0.551,10.218-0.824c5.83-0.468,11.658-0.944,17.488-1.411c4.909-0.393,9.82-0.775,14.729-1.167
			c4.265-0.34,8.529-0.697,12.795-1.023C374.021-137.672,374.812-137.62,375.762-137.62z"/>
	</g>
</g>
<g id="_x38_aTFDm.tif_6_">
	<g>
		<path style="fill:#FFFFFF;" d="M874.42-117.316c-0.094-0.304-0.184-0.577-0.262-0.853c-0.361-1.279-0.503-2.585-0.44-3.911
			c0.061-1.282,0.32-2.525,0.772-3.728c0.045-0.12,0.106-0.158,0.227-0.162c1.631-0.056,3.262-0.115,4.892-0.175
			c0.978-0.036,1.957-0.073,2.935-0.109c0.037-0.001,0.076-0.009,0.111-0.001c0.073,0.017,0.145,0.041,0.217,0.063
			c-0.031,0.068-0.047,0.151-0.096,0.202c-0.789,0.83-1.582,1.657-2.376,2.483c-1.81,1.882-3.621,3.762-5.433,5.642
			C874.798-117.689,874.622-117.518,874.42-117.316z"/>
		<path style="fill:#FFFFFF;" d="M890.51-109.924c-0.332,0.105-0.661,0.22-0.996,0.313c-1.481,0.413-2.99,0.537-4.519,0.402
			c-1.053-0.093-2.078-0.322-3.076-0.677c-0.129-0.046-0.169-0.118-0.174-0.242c-0.029-0.676-0.058-1.352-0.095-2.028
			c-0.053-0.971-0.115-1.942-0.17-2.913c-0.052-0.903-0.101-1.807-0.151-2.711c-0.003-0.049-0.012-0.101-0.001-0.147
			c0.012-0.049,0.037-0.126,0.068-0.132c0.05-0.01,0.121,0.015,0.162,0.05c0.193,0.163,0.379,0.334,0.567,0.503
			c2.747,2.462,5.493,4.924,8.241,7.385c0.053,0.048,0.125,0.076,0.188,0.113C890.539-109.981,890.525-109.953,890.51-109.924z"/>
		<path style="fill:#FFFFFF;" d="M891.506-132.625c0.374,0.203,0.721,0.374,1.051,0.573c2.169,1.306,3.806,3.096,4.901,5.382
			c0.071,0.147,0.036,0.235-0.058,0.34c-1.428,1.613-2.855,3.227-4.282,4.841c-0.294,0.332-0.585,0.666-0.883,0.994
			c-0.047,0.051-0.128,0.071-0.193,0.106c-0.027-0.064-0.074-0.127-0.078-0.192c-0.037-0.769-0.069-1.537-0.1-2.306
			c-0.075-1.851-0.148-3.703-0.223-5.554c-0.045-1.107-0.092-2.214-0.134-3.321C891.497-132.03,891.506-132.301,891.506-132.625z"/>
		<path style="fill:#FFFFFF;" d="M881.928-133.098c0.485-0.132,0.966-0.278,1.455-0.394c1.085-0.258,2.188-0.342,3.301-0.3
			c1.359,0.052,2.673,0.329,3.944,0.81c0.062,0.024,0.118,0.151,0.121,0.232c0.036,0.985,0.058,1.97,0.089,2.954
			c0.047,1.49,0.1,2.979,0.144,4.469c0.003,0.107-0.042,0.216-0.065,0.324c-0.096-0.056-0.204-0.098-0.285-0.171
			c-2.804-2.529-5.605-5.06-8.407-7.591c-0.099-0.09-0.2-0.178-0.301-0.267C881.926-133.054,881.927-133.076,881.928-133.098z"/>
		<path style="fill:#FFFFFF;" d="M874.917-126.797c0.122-0.233,0.22-0.436,0.332-0.632c1.331-2.343,3.218-4.086,5.659-5.229
			c0.092-0.043,0.161-0.073,0.26,0.018c1.443,1.324,2.891,2.642,4.338,3.961c0.455,0.415,0.912,0.828,1.364,1.247
			c0.053,0.049,0.076,0.129,0.112,0.195c-0.07,0.026-0.139,0.073-0.211,0.076c-0.991,0.038-1.982,0.071-2.973,0.102
			c-2.025,0.064-4.05,0.126-6.075,0.188c-0.856,0.026-1.711,0.05-2.567,0.074C875.09-126.795,875.024-126.797,874.917-126.797z"/>
		<path style="fill:#FFFFFF;" d="M880.854-110.31c-0.413-0.225-0.793-0.412-1.155-0.631c-1.904-1.156-3.406-2.703-4.485-4.655
			c-0.155-0.28-0.286-0.573-0.436-0.855c-0.05-0.094-0.031-0.154,0.039-0.227c1.239-1.286,2.476-2.574,3.713-3.862
			c0.461-0.48,0.918-0.962,1.383-1.438c0.067-0.069,0.166-0.106,0.25-0.158c0.03,0.095,0.08,0.189,0.086,0.286
			c0.048,0.805,0.086,1.611,0.13,2.416c0.067,1.223,0.137,2.446,0.204,3.67c0.056,1.014,0.11,2.029,0.163,3.043
			c0.038,0.744,0.073,1.488,0.108,2.232C880.856-110.449,880.854-110.406,880.854-110.31z"/>
		<path style="fill:#FFFFFF;" d="M897.922-125.613c0.144,0.552,0.314,1.1,0.429,1.658c0.456,2.222,0.309,4.408-0.44,6.552
			c-0.04,0.115-0.091,0.157-0.218,0.168c-1.355,0.117-2.71,0.243-4.065,0.367c-1.14,0.104-2.28,0.207-3.421,0.311
			c-0.104,0.01-0.209,0.033-0.312,0.028c-0.078-0.003-0.154-0.041-0.231-0.063c0.031-0.068,0.048-0.15,0.096-0.202
			c0.442-0.488,0.89-0.972,1.336-1.457c2.118-2.303,4.236-4.606,6.354-6.91c0.136-0.148,0.271-0.298,0.407-0.447
			C897.879-125.609,897.901-125.611,897.922-125.613z"/>
		<path style="fill:#FFFFFF;" d="M897.509-116.404c-0.064,0.133-0.117,0.248-0.174,0.362c-1.174,2.314-2.898,4.098-5.167,5.356
			c-0.226,0.125-0.458,0.24-0.694,0.346c-0.05,0.023-0.148,0.01-0.189-0.026c-1.524-1.354-3.043-2.713-4.563-4.071
			c-0.289-0.259-0.577-0.519-0.86-0.785c-0.053-0.05-0.081-0.127-0.12-0.192c0.072-0.036,0.141-0.097,0.216-0.103
			c0.681-0.06,1.362-0.11,2.044-0.165c1.166-0.094,2.332-0.189,3.498-0.282c0.982-0.079,1.964-0.155,2.946-0.233
			c0.853-0.068,1.706-0.139,2.559-0.205C897.161-116.414,897.319-116.404,897.509-116.404z"/>
	</g>
</g>
<g id="_x38_aTFDm.tif_5_">
	<g>
		<path style="fill:#FFFFFF;" d="M701.281-129.399c0.248-1.086,0.452-2.07,0.698-3.042c1.143-4.51,2.999-8.716,5.51-12.624
			c2.428-3.779,5.39-7.094,8.865-9.948c0.346-0.284,0.598-0.293,0.97-0.094c5.041,2.684,10.088,5.358,15.135,8.032
			c3.028,1.604,6.058,3.204,9.087,4.807c0.115,0.061,0.244,0.106,0.336,0.192c0.193,0.179,0.366,0.379,0.548,0.57
			c-0.214,0.151-0.407,0.374-0.645,0.443c-3.845,1.134-7.695,2.255-11.546,3.367c-8.78,2.535-17.561,5.066-26.343,7.595
			C703.076-129.867,702.247-129.658,701.281-129.399z"/>
		<path style="fill:#FFFFFF;" d="M737.114-78.836c-1.19-0.263-2.388-0.491-3.568-0.795c-5.211-1.341-10.003-3.604-14.4-6.69
			c-3.028-2.126-5.735-4.614-8.138-7.434c-0.31-0.364-0.305-0.652-0.104-1.037c1.095-2.1,2.191-4.201,3.26-6.314
			c1.538-3.037,3.051-6.087,4.581-9.128c1.423-2.829,2.855-5.654,4.285-8.481c0.078-0.154,0.141-0.326,0.255-0.448
			c0.121-0.128,0.333-0.316,0.437-0.28c0.168,0.058,0.339,0.257,0.403,0.434c0.299,0.831,0.563,1.675,0.838,2.515
			c4.017,12.269,8.034,24.539,12.057,36.806c0.078,0.238,0.247,0.448,0.373,0.671C737.302-78.957,737.208-78.897,737.114-78.836z"/>
		<path style="fill:#FFFFFF;" d="M779.859-145.899c0.778,1.269,1.529,2.396,2.182,3.576c4.288,7.753,6.12,16.045,5.436,24.891
			c-0.044,0.57-0.302,0.774-0.77,0.93c-7.152,2.389-14.302,4.785-21.452,7.18c-1.471,0.493-2.938,0.997-4.416,1.467
			c-0.232,0.074-0.513-0.008-0.771-0.018c0.03-0.24-0.004-0.514,0.1-0.717c1.233-2.394,2.483-4.78,3.734-7.164
			c3.013-5.742,6.031-11.482,9.044-17.224c1.802-3.433,3.594-6.873,5.406-10.301C778.793-144.114,779.293-144.918,779.859-145.899z"
			/>
		<path style="fill:#FFFFFF;" d="M751.654-164.095c1.701,0.447,3.416,0.847,5.101,1.351c3.74,1.118,7.232,2.792,10.53,4.869
			c4.027,2.535,7.527,5.677,10.537,9.357c0.148,0.181,0.095,0.664-0.038,0.915c-1.615,3.047-3.272,6.071-4.9,9.111
			c-2.465,4.598-4.911,9.205-7.384,13.799c-0.178,0.331-0.505,0.581-0.762,0.868c-0.191-0.338-0.447-0.656-0.564-1.018
			c-4.074-12.571-8.133-25.146-12.197-37.721c-0.144-0.446-0.296-0.89-0.445-1.334C751.573-163.965,751.613-164.03,751.654-164.095z
			"/>
		<path style="fill:#FFFFFF;" d="M719.378-157.266c0.777-0.492,1.431-0.935,2.11-1.334c8.136-4.773,16.904-6.755,26.303-5.947
			c0.354,0.03,0.615,0.061,0.756,0.508c2.056,6.538,4.139,13.067,6.217,19.599c0.653,2.054,1.316,4.105,1.952,6.165
			c0.074,0.24,0.003,0.524-0.001,0.788c-0.259-0.043-0.55-0.023-0.771-0.139c-3.069-1.62-6.131-3.254-9.189-4.894
			c-6.25-3.351-12.497-6.706-18.744-10.063c-2.639-1.418-5.274-2.844-7.911-4.267C719.899-156.959,719.703-157.079,719.378-157.266z
			"/>
		<path style="fill:#FFFFFF;" d="M708.521-96.903c-0.859-1.404-1.683-2.638-2.395-3.934c-3.748-6.837-5.593-14.154-5.448-21.958
			c0.021-1.12,0.134-2.237,0.175-3.356c0.014-0.373,0.177-0.521,0.515-0.618c6.006-1.731,12.009-3.47,18.013-5.209
			c2.235-0.648,4.467-1.311,6.708-1.94c0.323-0.091,0.689-0.032,1.035-0.043c-0.076,0.341-0.087,0.714-0.239,1.017
			c-1.264,2.524-2.558,5.032-3.835,7.55c-1.938,3.825-3.866,7.655-5.803,11.48c-1.606,3.171-3.216,6.342-4.833,9.509
			c-1.185,2.322-2.384,4.637-3.577,6.954C708.769-97.321,708.69-97.195,708.521-96.903z"/>
		<path style="fill:#FFFFFF;" d="M787.035-113.418c-0.529,1.927-0.972,3.883-1.602,5.777c-2.507,7.534-6.777,13.901-12.799,19.089
			c-0.324,0.279-0.552,0.317-0.954,0.129c-4.313-2.017-8.64-4.005-12.963-6.002c-3.638-1.68-7.275-3.362-10.913-5.042
			c-0.333-0.153-0.69-0.266-0.995-0.46c-0.23-0.146-0.395-0.394-0.589-0.596c0.214-0.152,0.407-0.37,0.645-0.446
			c2.196-0.706,4.399-1.387,6.6-2.077c10.451-3.274,20.902-6.548,31.353-9.823c0.673-0.211,1.344-0.429,2.017-0.643
			C786.899-113.481,786.967-113.449,787.035-113.418z"/>
		<path style="fill:#FFFFFF;" d="M769.668-86.227c-0.427,0.291-0.789,0.549-1.161,0.791c-7.609,4.96-15.957,7.351-25.035,7.194
			c-0.904-0.016-1.81-0.074-2.709-0.165c-0.192-0.019-0.465-0.23-0.525-0.41c-2.248-6.771-4.478-13.548-6.706-20.326
			c-0.424-1.29-0.84-2.583-1.234-3.883c-0.074-0.244-0.023-0.526-0.028-0.791c0.28,0.018,0.598-0.045,0.835,0.065
			c2.169,1.009,4.322,2.05,6.483,3.077c3.698,1.757,7.398,3.508,11.095,5.265c3.113,1.48,6.224,2.967,9.337,4.448
			c2.705,1.287,5.414,2.563,8.115,3.858C768.63-86.868,769.092-86.56,769.668-86.227z"/>
	</g>
</g>
<path style="fill:#5D5D5D;" d="M587.964-93.506c1.129-3.723,2.226-7.456,3.345-11.182c1.04-3.467,2.092-6.931,3.14-10.395
	c0.057-0.189,0.094-0.395,0.198-0.555c0.111-0.168,0.313-0.422,0.437-0.402c0.2,0.032,0.433,0.221,0.54,0.409
	c0.502,0.876,0.966,1.773,1.442,2.664c6.906,12.918,13.812,25.837,20.725,38.751c1.187-0.002,2.361-0.061,3.526-0.147
	c-3.734-6.919-7.452-13.847-11.168-20.776c-0.733-1.368-1.458-2.741-2.159-4.126c-0.132-0.26-0.13-0.588-0.189-0.884
	c0.319-0.036,0.664-0.17,0.952-0.093c2.641,0.705,5.272,1.45,7.907,2.176c4.511,1.243,9.022,2.48,13.533,3.724
	c3.798,1.048,7.594,2.104,11.392,3.153c3.299,0.911,6.602,1.81,9.899,2.732c0.104,0.029,0.209,0.072,0.312,0.105
	c0.824-0.825,1.608-1.687,2.37-2.57c-4.907-1.316-9.821-2.607-14.733-3.905c-4.428-1.169-8.855-2.34-13.283-3.509
	c-0.405-0.106-0.829-0.162-1.212-0.32c-0.288-0.119-0.523-0.365-0.782-0.554c0.211-0.214,0.384-0.497,0.637-0.63
	c2.331-1.231,4.676-2.435,7.016-3.647c11.113-5.759,22.225-11.518,33.338-17.278c0.239-0.124,0.477-0.25,0.716-0.375
	c0.011-0.425,0.032-0.848,0.032-1.277c0-0.812-0.022-1.619-0.061-2.421c-7.335,3.978-14.667,7.964-21.999,11.947
	c-1.558,0.846-3.109,1.705-4.679,2.527c-0.246,0.129-0.579,0.093-0.871,0.132c-0.013-0.276-0.106-0.578-0.03-0.826
	c0.912-2.94,1.845-5.873,2.78-8.804c2.251-7.061,4.509-14.12,6.761-21.18c1.347-4.222,2.682-8.448,4.04-12.667
	c0.209-0.65,0.45-1.297,0.709-1.988c-0.761-0.796-1.54-1.574-2.353-2.317c-1.168,3.598-2.378,7.182-3.559,10.776
	c-1.862,5.664-3.701,11.335-5.572,16.996c-0.135,0.407-0.453,0.754-0.686,1.128c-0.282-0.343-0.633-0.649-0.837-1.034
	c-7.08-13.34-14.144-26.688-21.213-40.034c-0.076-0.144-0.155-0.286-0.233-0.429c-0.134-0.001-0.266-0.01-0.4-0.01
	c-1.069,0-2.127,0.047-3.179,0.116c3.5,6.731,7.024,13.45,10.545,20.171c1.143,2.182,2.296,4.359,3.42,6.551
	c0.131,0.255,0.107,0.589,0.156,0.887c-0.3,0.002-0.624,0.084-0.895-0.003c-3.776-1.214-7.546-2.446-11.313-3.684
	c-7.699-2.532-15.396-5.067-23.093-7.606c-3.007-0.991-6.011-1.991-9.016-2.989c-0.868,0.834-1.71,1.695-2.514,2.591
	c5.874,1.911,11.751,3.812,17.629,5.712c3.726,1.205,7.455,2.404,11.182,3.607c0.141,0.045,0.296,0.071,0.417,0.149
	c0.253,0.163,0.488,0.354,0.73,0.533c-0.211,0.213-0.384,0.501-0.638,0.627c-4.103,2.04-8.213,4.065-12.326,6.081
	c-9.378,4.596-18.759,9.187-28.141,13.775c-0.372,0.181-0.751,0.358-1.137,0.537c-0.009,0.383-0.029,0.764-0.029,1.149
	c0,0.685,0.023,1.364,0.052,2.043c6.058-2.966,12.114-5.939,18.169-8.912c2.387-1.173,4.767-2.362,7.165-3.515
	c0.346-0.166,0.769-0.173,1.156-0.253c-0.018,0.399,0.043,0.821-0.067,1.192c-0.922,3.091-1.881,6.171-2.817,9.259
	c-1.422,4.689-2.832,9.383-4.254,14.072c-1.179,3.888-2.361,7.776-3.552,11.661c-0.8,2.608-1.613,5.212-2.422,7.816
	c0.902,0.94,1.84,1.846,2.815,2.71C586.486-88.73,587.24-91.114,587.964-93.506z"/>
<g id="_x38_aTFDm.tif_3_">
	<g>
		<path style="fill:#FFFFFF;" d="M415.893-112.201c-0.178-1.421-0.365-2.7-0.494-3.983c-0.602-5.951-0.209-11.849,1.105-17.675
			c1.271-5.634,3.392-10.941,6.336-15.918c0.293-0.495,0.593-0.617,1.131-0.541c7.271,1.026,14.544,2.037,21.818,3.048
			c4.364,0.607,8.729,1.207,13.093,1.811c0.165,0.023,0.342,0.021,0.491,0.084c0.312,0.131,0.609,0.297,0.913,0.448
			c-0.192,0.277-0.328,0.63-0.585,0.819c-4.147,3.061-8.305,6.108-12.469,9.145c-9.492,6.924-18.989,13.843-28.487,20.759
			C417.855-113.555,416.945-112.938,415.893-112.201z"/>
		<path style="fill:#FFFFFF;" d="M481.42-66.869c-1.553,0.206-3.102,0.457-4.66,0.608c-6.886,0.672-13.671,0.045-20.34-1.75
			c-4.593-1.237-8.958-3.053-13.101-5.404c-0.535-0.304-0.655-0.654-0.581-1.207c0.4-3.019,0.8-6.039,1.163-9.062
			c0.523-4.346,1.01-8.696,1.521-13.043c0.475-4.044,0.964-8.087,1.448-12.131c0.026-0.22,0.026-0.456,0.111-0.653
			c0.09-0.208,0.264-0.528,0.405-0.531c0.228-0.004,0.523,0.161,0.678,0.347c0.727,0.872,1.417,1.776,2.118,2.67
			c10.249,13.057,20.497,26.115,30.752,39.166c0.199,0.254,0.495,0.433,0.746,0.646C481.593-67.097,481.507-66.984,481.42-66.869z"
			/>
		<path style="fill:#FFFFFF;" d="M503.573-166.69c1.498,1.192,2.901,2.222,4.209,3.361c8.59,7.481,14.449,16.695,17.513,27.682
			c0.198,0.708-0.025,1.068-0.521,1.463c-7.59,6.031-15.175,12.071-22.76,18.108c-1.561,1.242-3.111,2.496-4.691,3.714
			c-0.248,0.191-0.623,0.216-0.94,0.317c-0.069-0.304-0.231-0.619-0.194-0.91c0.437-3.435,0.897-6.867,1.361-10.297
			c1.115-8.262,2.237-16.524,3.353-24.786c0.667-4.941,1.321-9.884,2.001-14.823C503.069-164.064,503.32-165.256,503.573-166.69z"/>
		<path style="fill:#FFFFFF;" d="M461.494-176.271c2.252-0.208,4.5-0.479,6.757-0.611c5.01-0.294,9.966,0.194,14.863,1.252
			c5.98,1.292,11.59,3.549,16.846,6.671c0.258,0.153,0.407,0.761,0.357,1.122c-0.612,4.391-1.283,8.774-1.914,13.162
			c-0.956,6.639-1.886,13.282-2.853,19.919c-0.07,0.478-0.355,0.924-0.539,1.384c-0.38-0.325-0.828-0.596-1.129-0.982
			c-10.45-13.397-20.884-26.805-31.323-40.21c-0.37-0.476-0.749-0.945-1.125-1.417C461.454-176.078,461.474-176.174,461.494-176.271
			z"/>
		<path style="fill:#FFFFFF;" d="M425.502-153.827c0.722-0.937,1.317-1.759,1.963-2.54c7.73-9.344,17.452-15.595,29.164-18.751
			c0.441-0.12,0.77-0.197,1.137,0.282c5.359,6.995,10.747,13.967,16.13,20.945c1.692,2.195,3.395,4.381,5.069,6.59
			c0.195,0.257,0.234,0.632,0.346,0.952c-0.332,0.061-0.675,0.215-0.993,0.171c-4.42-0.608-8.838-1.236-13.254-1.872
			c-9.025-1.301-18.047-2.607-27.071-3.915c-3.812-0.552-7.622-1.116-11.434-1.677C426.266-153.685,425.977-153.743,425.502-153.827
			z"/>
		<path style="fill:#FFFFFF;" d="M438.929-76.123c-1.655-1.318-3.194-2.447-4.623-3.7c-7.534-6.612-12.982-14.641-16.237-24.134
			c-0.467-1.362-0.822-2.761-1.264-4.132c-0.147-0.456-0.015-0.707,0.351-0.974c6.495-4.732,12.983-9.473,19.472-14.215
			c2.416-1.765,4.82-3.548,7.251-5.294c0.351-0.252,0.818-0.342,1.232-0.507c0.058,0.445,0.208,0.901,0.159,1.334
			c-0.417,3.605-0.878,7.205-1.313,10.808c-0.66,5.473-1.305,10.949-1.963,16.422c-0.546,4.538-1.097,9.076-1.657,13.613
			c-0.411,3.326-0.841,6.65-1.263,9.974C439.046-76.737,439.004-76.551,438.929-76.123z"/>
		<path style="fill:#FFFFFF;" d="M526.525-130.602c0.208,2.561,0.533,5.119,0.604,7.684c0.284,10.204-2.075,19.775-7.069,28.692
			c-0.269,0.48-0.528,0.626-1.096,0.575c-6.098-0.54-12.2-1.039-18.3-1.551c-5.134-0.43-10.268-0.863-15.402-1.293
			c-0.469-0.039-0.95-0.018-1.405-0.118c-0.342-0.076-0.65-0.302-0.974-0.461c0.192-0.278,0.329-0.626,0.583-0.822
			c2.342-1.819,4.705-3.611,7.061-5.412c11.187-8.552,22.374-17.103,33.56-25.655c0.72-0.551,1.436-1.109,2.154-1.664
			C526.334-130.618,526.43-130.61,526.525-130.602z"/>
		<path style="fill:#FFFFFF;" d="M517.5-90.114c-0.388,0.539-0.712,1.01-1.055,1.466c-7.012,9.338-16.046,15.898-27.083,19.7
			c-1.099,0.378-2.219,0.706-3.346,0.992c-0.24,0.061-0.663-0.073-0.815-0.264c-5.694-7.192-11.368-14.399-17.04-21.609
			c-1.08-1.372-2.151-2.752-3.198-4.149c-0.197-0.262-0.259-0.626-0.382-0.943c0.346-0.102,0.702-0.318,1.037-0.289
			c3.064,0.265,6.124,0.576,9.185,0.867c5.24,0.496,10.48,0.985,15.721,1.482c4.412,0.419,8.825,0.848,13.237,1.268
			c3.833,0.365,7.668,0.715,11.5,1.093C515.965-90.432,516.658-90.262,517.5-90.114z"/>
	</g>
</g>
<path style="fill:#FFFFFF;" d="M1167.477-208.903c2.424-0.662,4.832-1.392,7.276-1.972c5.425-1.288,10.942-1.711,16.505-1.498
	c6.793,0.26,13.367,1.647,19.72,4.049c0.312,0.118,0.592,0.754,0.607,1.159c0.178,4.923,0.289,9.848,0.445,14.772
	c0.235,7.449,0.499,14.897,0.721,22.346c0.016,0.536-0.21,1.079-0.323,1.618c-0.478-0.282-1.021-0.492-1.425-0.857
	c-14.019-12.643-28.024-25.301-42.033-37.955c-0.497-0.449-1.002-0.889-1.504-1.333
	C1167.47-208.684,1167.473-208.793,1167.477-208.903z"/>
<path style="fill:#FFFFFF;" d="M1132.423-177.4c0.609-1.164,1.102-2.179,1.658-3.158c6.656-11.716,16.088-20.432,28.294-26.145
	c0.46-0.216,0.805-0.364,1.298,0.089c7.214,6.62,14.455,13.21,21.691,19.807c2.275,2.075,4.56,4.139,6.818,6.233
	c0.263,0.244,0.378,0.646,0.562,0.975c-0.351,0.131-0.697,0.365-1.053,0.379c-4.954,0.188-9.909,0.353-14.864,0.509
	c-10.126,0.318-20.251,0.63-30.377,0.939c-4.278,0.131-8.556,0.249-12.835,0.371C1133.287-177.392,1132.959-177.4,1132.423-177.4z"
	/>
<g>
	<path style="fill:#FFFFFF;stroke:#5D5D5D;stroke-miterlimit:10;" d="M949-170c2.424-0.662,14.937-12.963,20.5-12.75
		c6.793,0.26,20.647-6.152,27-3.75c0.312,0.118,1.501,22.472,1.516,22.877c0.178,4.923,0.289,9.848,0.445,14.772
		c0.235,7.449,0.499,14.897,0.721,22.346c0.016,0.536-0.21,1.079-0.323,1.618c-0.478-0.282-1.021-0.492-1.425-0.857
		c-14.019-12.643-28.024-25.301-42.033-37.955c-0.497-0.449-1.002-0.889-1.504-1.333C953.901-165.142,948.996-169.89,949-170z"/>
	<path style="fill:#FFFFFF;stroke:#5D5D5D;stroke-miterlimit:10;" d="M930.333-124.75c0.609-1.164-0.723-16.104-0.167-17.083
		c6.656-11.716,19.09-27.453,19.583-27c7.214,6.62,30.58,28.097,37.816,34.694c2.275,2.075,4.56,4.139,6.818,6.233
		c0.263,0.244,0.378,0.646,0.562,0.975c-0.351,0.131-0.697,0.365-1.053,0.379c-4.954,0.188-9.909,0.353-14.864,0.509
		c-10.126,0.318-20.251,0.63-30.377,0.939c-4.278,0.131-8.556,0.249-12.835,0.371C935.489-124.724,930.869-124.75,930.333-124.75z"
		/>
	<path style="fill:#FFFFFF;stroke:#5D5D5D;stroke-miterlimit:10;" d="M947.94-81.518c-0.469-1.521-8.217-2.884-8.606-4.263
		c-1.807-6.396-12.481-12.925-12.167-19.554c0.304-6.41-2.761-12.818-0.5-18.832c0.225-0.598,22.155-0.598,22.758-0.618
		c8.154-0.28,16.308-0.577,24.462-0.874c4.892-0.178,9.784-0.363,14.676-0.544c0.185-0.007,0.378-0.043,0.553-0.003
		c0.367,0.083,0.724,0.207,1.086,0.314c-0.157,0.34-0.237,0.753-0.482,1.009c-3.947,4.15-7.909,8.286-11.879,12.413
		c-9.051,9.408-18.107,18.811-27.166,28.212C949.826-83.379,948.949-82.528,947.94-81.518z"/>
	<path style="fill:#FFFFFF;stroke:#5D5D5D;stroke-miterlimit:10;" d="M1034.929-77.12c-1.66,0.525-3.306,1.098-4.982,1.565
		c-7.405,2.064-14.95,2.687-22.594,2.009c-5.264-0.467-10.391-1.612-15.378-3.385c-0.644-0.229-0.843-0.589-0.869-1.209
		c-0.145-3.381-0.29-6.762-0.476-10.14c-0.266-4.856-0.573-9.71-0.852-14.565c-0.26-4.517-0.506-9.035-0.756-13.553
		c-0.014-0.246-0.059-0.504-0.005-0.736c0.058-0.245,0.187-0.629,0.341-0.659c0.249-0.048,0.603,0.075,0.809,0.249
		c0.964,0.814,1.893,1.67,2.833,2.513c13.734,12.31,27.467,24.621,41.207,36.923c0.267,0.239,0.625,0.378,0.941,0.563
		C1035.075-77.403,1035.002-77.262,1034.929-77.12z"/>
	<path style="fill:#FFFFFF;stroke:#5D5D5D;stroke-miterlimit:10;" d="M997.25-185.501c1.869,1.015,5-1.751,9.25,0.499
		c6.75,1.25,28.278,7.07,33.75,18.502c0.353,0.737-12.611,15.163-13.078,15.691c-7.142,8.064-14.276,16.136-21.411,24.206
		c-1.468,1.66-2.923,3.332-4.416,4.969c-0.234,0.257-0.64,0.356-0.967,0.528c-0.134-0.319-0.372-0.633-0.388-0.958
		c-0.185-3.843-0.343-7.687-0.498-11.53c-0.374-9.256-0.74-18.513-1.113-27.769c-0.223-5.535-0.462-11.07-0.67-16.606
		C997.658-179.317,997.25-183.883,997.25-185.501z"/>
	<path style="fill:#FFFFFF;stroke:#5D5D5D;stroke-miterlimit:10;" d="M991.316-62.547c-2.065-1.123-3.967-2.061-5.773-3.157
		c-9.52-5.781-17.03-13.516-22.424-23.275c-0.774-1.4-1.432-2.863-2.18-4.277c-0.249-0.471-0.153-0.771,0.196-1.133
		c6.194-6.431,12.379-12.871,18.564-19.311c2.303-2.398,4.59-4.812,6.913-7.192c0.335-0.343,0.829-0.532,1.25-0.792
		c0.149,0.476,0.402,0.946,0.431,1.429c0.239,4.025,0.429,8.053,0.649,12.08c0.334,6.116,0.685,12.232,1.02,18.348
		c0.278,5.071,0.551,10.143,0.813,15.216c0.192,3.719,0.363,7.439,0.542,11.158C991.325-63.242,991.316-63.03,991.316-62.547z"/>
	<path style="fill:#FFFFFF;stroke:#5D5D5D;stroke-miterlimit:10;" d="M1039.259-161.686c0.722,2.762,1.571,5.499,2.144,8.292
		c2.28,11.111,1.545,22.039-2.199,32.759c-0.202,0.577-0.457,0.787-1.088,0.841c-6.777,0.586-13.55,1.217-20.324,1.834
		c-5.701,0.52-11.402,1.037-17.103,1.557c-0.521,0.048-1.043,0.164-1.56,0.142c-0.389-0.017-0.77-0.205-1.155-0.317
		c0.156-0.341,0.239-0.748,0.479-1.012c2.212-2.442,4.452-4.859,6.682-7.284c10.591-11.516,21.182-23.031,31.772-34.548
		c0.682-0.742,1.357-1.491,2.036-2.236C1039.047-161.667,1039.153-161.676,1039.259-161.686z"/>
	<path style="fill:#FFFFFF;stroke:#5D5D5D;stroke-miterlimit:10;" d="M1052.758-120.1c-0.32,0.665-0.584,1.242-0.872,1.808
		c-5.871,11.571-14.491,20.492-25.834,26.782c-1.13,0.626-2.292,1.201-3.47,1.731c-0.251,0.113-0.739,0.048-0.943-0.132
		c-7.618-6.771-15.217-13.563-22.815-20.357c-1.446-1.293-2.885-2.596-4.3-3.923c-0.266-0.249-0.404-0.635-0.6-0.958
		c0.359-0.178,0.707-0.483,1.079-0.516c3.404-0.301,6.812-0.551,10.218-0.824c5.83-0.468,11.658-0.944,17.488-1.411
		c4.909-0.393,9.82-0.775,14.729-1.167c4.265-0.34,8.529-0.697,12.795-1.023C1051.017-120.152,1051.808-120.1,1052.758-120.1z"/>
</g>
<rect x="-1.719" style="fill:#5D5D5D;" width="639.719" height="352"/>
<circle style="fill:#FFFFFF;" cx="68" cy="167" r="55"/>
<path style="fill:#5D5D5D;" d="M154.193,215.421l2.366-3.823l-51.499-13.461c0.018-0.021,0.037-0.041,0.055-0.062
	c-5.029-1.348-10.065-2.672-15.099-4.001c-4.538-1.198-9.075-2.398-13.613-3.596c-0.415-0.109-0.849-0.166-1.242-0.328
	c-0.295-0.122-0.536-0.374-0.801-0.568c0.216-0.219,0.394-0.509,0.653-0.645c2.389-1.261,4.792-2.495,7.19-3.738
	c10.089-5.229,20.177-10.457,30.265-15.686l-0.041,0.086l51.23-26.99l-0.546-3.641l-48.23,25.479l-0.039,0.082
	c-6.773,3.675-13.545,7.354-20.315,11.033c-1.596,0.867-3.186,1.747-4.795,2.59c-0.252,0.132-0.593,0.095-0.893,0.136
	c-0.014-0.283-0.109-0.592-0.03-0.847c0.935-3.013,1.891-6.018,2.849-9.022c2.307-7.236,4.621-14.47,6.929-21.706
	c1.38-4.327,2.748-8.658,4.14-12.981c0.127-0.394,0.267-0.79,0.414-1.191l0.024,0.008l0.148-0.474
	c0.047-0.127,0.092-0.25,0.14-0.379c-0.005-0.006-0.011-0.011-0.016-0.016l15.44-49.141l-2.913-1.82l-15.768,50.881l0.086,0.027
	c-0.959,2.914-1.931,5.823-2.888,8.738c-1.908,5.805-3.793,11.617-5.71,17.418c-0.138,0.417-0.464,0.772-0.703,1.156
	c-0.289-0.351-0.649-0.665-0.857-1.06c-7.208-13.582-14.401-27.171-21.597-40.759L45.337,71.25l-4.369,1.456l20.303,36.754
	c4.934,9.796,11.488,22.904,14.015,27.728c1.171,2.237,2.352,4.467,3.505,6.714c0.134,0.262,0.11,0.604,0.16,0.909
	c-0.307,0.003-0.639,0.086-0.918-0.003c-3.869-1.244-7.733-2.507-11.594-3.776c-7.89-2.594-15.778-5.193-23.666-7.795
	c-2.873-0.947-5.744-1.903-8.615-2.857L-13.824,113.3l-2.366,4.005l47.237,15.432c-0.029,0.032-0.061,0.06-0.089,0.092
	c6.02,1.958,12.043,3.907,18.067,5.854c3.819,1.235,7.64,2.464,11.459,3.696c0.144,0.046,0.303,0.073,0.427,0.153
	c0.259,0.167,0.5,0.362,0.749,0.546c-0.216,0.218-0.394,0.514-0.654,0.642c-4.204,2.09-8.417,4.166-12.632,6.232
	c-7.908,3.876-15.819,7.746-23.731,11.616l-52.3,25.091l0.728,2.913l45.319-21.748c0.001,0.022,0.001,0.045,0.002,0.067
	c6.209-3.039,12.414-6.086,18.62-9.134c2.447-1.202,4.886-2.42,7.343-3.602c0.354-0.17,0.788-0.177,1.185-0.26
	c-0.019,0.408,0.044,0.842-0.069,1.222c-0.944,3.168-1.928,6.324-2.887,9.488c-1.458,4.806-2.902,9.616-4.359,14.421
	c-1.208,3.985-2.42,7.969-3.64,11.951c-0.083,0.271-0.168,0.541-0.252,0.812l-18.119,57.4l3.823,2.002l14.889-49.483
	c0.021,0.019,0.04,0.038,0.061,0.057c0.772-2.443,1.545-4.887,2.288-7.339c1.157-3.816,2.281-7.641,3.428-11.46
	c1.066-3.553,2.144-7.103,3.218-10.653c0.058-0.193,0.096-0.405,0.203-0.568c0.113-0.173,0.32-0.432,0.447-0.412
	c0.205,0.033,0.444,0.227,0.553,0.419c0.514,0.897,0.99,1.817,1.478,2.73c5.403,10.106,10.807,20.211,16.213,30.315l28.944,56.953
	l4.369-0.91l-24.773-46.79c0.033-0.002,0.067-0.003,0.101-0.006c-2.258-4.184-4.504-8.374-6.753-12.563l-3.76-7.105l-0.114-0.103
	c-0.272-0.507-0.545-1.013-0.817-1.521c-0.751-1.402-1.495-2.809-2.213-4.228c-0.135-0.266-0.133-0.602-0.194-0.906
	c0.327-0.036,0.68-0.174,0.976-0.095c2.707,0.723,5.402,1.486,8.103,2.23c4.623,1.274,9.246,2.542,13.869,3.817
	c0.555,0.153,1.11,0.307,1.665,0.461l-0.197,0.018L154.193,215.421z"/>
<circle style="fill:#FFFFFF;" cx="194" cy="167" r="55"/>
<path style="fill:#5D5D5D;stroke:#5D5D5D;stroke-width:0.5;stroke-miterlimit:10;" d="M269.443,169.363l0.25-3.363l-38.922,8.88
	c0.005-0.02,0.01-0.04,0.015-0.06c-3.813,0.845-7.621,1.708-11.43,2.567c-3.434,0.775-6.868,1.547-10.302,2.322
	c-0.314,0.071-0.623,0.184-0.94,0.212c-0.238,0.021-0.486-0.063-0.73-0.101c0.068-0.22,0.086-0.475,0.211-0.655
	c1.153-1.666,2.324-3.32,3.489-4.977c4.901-6.972,9.802-13.944,14.702-20.916l0.003,0.071l24.734-35.697l-1.624-2.233
	l-23.262,33.652l0.002,0.068c-3.233,4.791-6.464,9.583-9.694,14.375c-0.762,1.13-1.515,2.266-2.293,3.384
	c-0.122,0.175-0.362,0.268-0.547,0.399c-0.107-0.184-0.278-0.356-0.313-0.553c-0.421-2.328-0.826-4.659-1.229-6.989
	c-0.971-5.613-1.937-11.227-2.907-16.839c-0.58-3.356-1.17-6.711-1.741-10.07c-0.052-0.306-0.096-0.618-0.137-0.936l0.019-0.003
	l-0.066-0.367c-0.013-0.101-0.026-0.198-0.038-0.301c-0.005-0.002-0.011-0.003-0.016-0.005L199.93,93.19l-2.568-0.202l7.131,39.31
	l0.066-0.011c0.371,2.271,0.732,4.543,1.105,6.813c0.741,4.522,1.5,9.042,2.233,13.565c0.053,0.326-0.041,0.675-0.067,1.012
	c-0.314-0.134-0.662-0.218-0.937-0.408c-9.499-6.539-18.99-13.089-28.483-19.636l-31.312-22.482l-2.402,2.482l26.235,17.42
	c6.675,4.808,15.575,11.259,18.926,13.593c1.553,1.082,3.112,2.157,4.657,3.253c0.18,0.128,0.282,0.363,0.421,0.549
	c-0.203,0.108-0.396,0.278-0.612,0.316c-3.005,0.512-6.012,1.01-9.021,1.503c-6.148,1.007-12.295,2.009-18.443,3.01
	c-2.239,0.365-4.48,0.723-6.72,1.083l-37.835,5.254l-0.187,3.484l36.769-6.093c-0.008,0.031-0.02,0.061-0.028,0.092
	c4.683-0.782,9.365-1.572,14.047-2.362c2.968-0.501,5.936-1.007,8.903-1.509c0.112-0.019,0.227-0.057,0.337-0.046
	c0.23,0.021,0.458,0.068,0.687,0.104c-0.068,0.22-0.084,0.478-0.213,0.654c-2.073,2.847-4.156,5.686-6.246,8.521
	c-3.919,5.317-7.841,10.632-11.764,15.946l-26.104,34.804l1.493,1.685l22.617-30.163c0.008,0.014,0.016,0.03,0.024,0.044
	c3.078-4.172,6.151-8.348,9.224-12.524c1.212-1.647,2.412-3.302,3.637-4.939c0.177-0.236,0.463-0.391,0.699-0.583
	c0.129,0.278,0.321,0.544,0.377,0.837c0.469,2.435,0.908,4.875,1.365,7.312c0.694,3.702,1.399,7.402,2.094,11.104
	c0.576,3.069,1.15,6.139,1.717,9.211c0.039,0.209,0.075,0.418,0.114,0.627l7.825,44.461l3.237,0.008l-7.232-38.075
	c0.02,0.005,0.04,0.011,0.06,0.016c-0.332-1.893-0.665-3.786-1.02-5.674c-0.552-2.939-1.129-5.873-1.688-8.811
	c-0.521-2.733-1.034-5.467-1.549-8.202c-0.028-0.149-0.076-0.303-0.062-0.448c0.016-0.154,0.064-0.398,0.155-0.429
	c0.148-0.049,0.374-0.003,0.513,0.087c0.653,0.419,1.288,0.866,1.929,1.305c7.094,4.852,14.189,9.703,21.284,14.552l38.979,27.865
	l2.591-2.118l-32.685-22.548c0.021-0.013,0.044-0.026,0.065-0.039c-2.951-2.001-5.896-4.012-8.843-6.019l-4.962-3.424l-0.112-0.029
	c-0.356-0.243-0.714-0.485-1.07-0.729c-0.985-0.672-1.967-1.351-2.936-2.046c-0.182-0.13-0.297-0.355-0.443-0.536
	c0.205-0.137,0.392-0.351,0.616-0.401c2.051-0.457,4.109-0.883,6.163-1.322c3.517-0.753,7.031-1.511,10.548-2.264
	c0.422-0.09,0.845-0.18,1.267-0.27l-0.125,0.08L269.443,169.363z"/>
<circle style="fill:#FFFFFF;" cx="317" cy="167" r="55"/>
<path style="fill:#5D5D5D;stroke:#5D5D5D;stroke-width:0.75;stroke-miterlimit:10;" d="M366,141.833l-0.887-2.066l-24.153,20.459
	c-0.003-0.013-0.006-0.027-0.01-0.04c-1.995,1.673-3.981,3.356-5.969,5.036c-1.792,1.515-3.585,3.029-5.377,4.544
	c-0.164,0.139-0.312,0.3-0.49,0.414c-0.135,0.086-0.307,0.112-0.462,0.165c-0.028-0.151-0.096-0.307-0.077-0.452
	c0.169-1.34,0.352-2.678,0.531-4.017c0.752-5.632,1.504-11.263,2.255-16.894l0.023,0.041L335.667,115l-1.648-0.82l-4.042,32.362
	l0.022,0.04c-0.437,3.828-0.872,7.657-1.307,11.485c-0.103,0.903-0.198,1.806-0.315,2.707c-0.018,0.141-0.131,0.27-0.201,0.405
	c-0.12-0.076-0.274-0.125-0.356-0.23c-0.966-1.247-1.923-2.501-2.878-3.755c-2.302-3.02-4.601-6.043-6.903-9.063
	c-1.376-1.806-2.758-3.609-4.129-5.419c-0.125-0.165-0.247-0.336-0.369-0.511l0.01-0.008l-0.152-0.197
	c-0.038-0.056-0.076-0.109-0.115-0.166c-0.004,0.001-0.008,0.001-0.011,0.002L294,116.833l-1.581,0.671l19.893,25.631l0.036-0.027
	c0.918,1.228,1.831,2.461,2.751,3.689c1.83,2.446,3.67,4.885,5.496,7.334c0.131,0.176,0.183,0.412,0.272,0.619
	c-0.227,0.018-0.459,0.075-0.68,0.047c-7.63-0.943-15.258-1.894-22.888-2.843l-33.465-4.788l-0.656,2.207l28.904,3.357
	c5.427,0.788,12.676,1.863,15.376,2.212c1.252,0.162,2.504,0.318,3.755,0.49c0.146,0.02,0.279,0.128,0.418,0.195
	c-0.087,0.127-0.148,0.286-0.264,0.375c-1.619,1.228-3.244,2.448-4.872,3.666c-3.325,2.488-6.652,4.973-9.98,7.458
	c-1.212,0.905-2.426,1.807-3.641,2.709l-27.041,19.331l0.962,2.118l26.152-19.499c0.005,0.021,0.007,0.042,0.012,0.063
	c2.529-1.904,5.054-3.812,7.579-5.721c1.601-1.21,3.2-2.422,4.8-3.633c0.06-0.046,0.117-0.103,0.185-0.131
	c0.143-0.058,0.292-0.101,0.438-0.15c0.027,0.151,0.097,0.309,0.075,0.452c-0.35,2.322-0.708,4.642-1.07,6.961
	c-0.681,4.351-1.364,8.701-2.048,13.051L296.5,219.5l1.402,0.537l5.786-33.005c0.009,0.006,0.019,0.013,0.028,0.019
	c0.536-3.415,1.068-6.83,1.599-10.246c0.21-1.347,0.41-2.695,0.63-4.04c0.032-0.194,0.153-0.374,0.234-0.56
	c0.162,0.125,0.357,0.223,0.481,0.379c1.027,1.295,2.037,2.603,3.058,3.904c1.55,1.975,3.106,3.946,4.657,5.921
	c1.286,1.637,2.57,3.276,3.851,4.918c0.087,0.112,0.173,0.224,0.26,0.336l22.349,29.171l1.916-0.991l-20.032-25.577
	c0.014-0.003,0.027-0.006,0.041-0.009c-0.779-1.017-1.558-2.034-2.35-3.042c-1.231-1.568-2.475-3.126-3.711-4.69
	c-1.149-1.456-2.294-2.915-3.44-4.373c-0.063-0.079-0.138-0.155-0.175-0.246c-0.038-0.096-0.085-0.255-0.04-0.301
	c0.072-0.075,0.22-0.117,0.33-0.107c0.515,0.047,1.028,0.116,1.542,0.178c5.689,0.685,11.377,1.37,17.066,2.054L369.5,185l0.88-2.05
	l-32.161-4.066c0.009-0.014,0.018-0.029,0.026-0.043c-2.361-0.275-4.722-0.557-7.082-0.837l-3.988-0.498l-0.075,0.017
	c-0.286-0.034-0.571-0.067-0.857-0.101c-0.79-0.094-1.579-0.193-2.366-0.306c-0.148-0.021-0.285-0.118-0.427-0.181
	c0.079-0.144,0.124-0.328,0.241-0.427c1.072-0.901,2.158-1.787,3.237-2.679c1.848-1.528,3.693-3.058,5.541-4.586
	c0.222-0.183,0.444-0.367,0.666-0.55l-0.049,0.086L366,141.833z"/>
<circle style="fill:#FFFFFF;" cx="450" cy="167" r="55"/>
<path style="fill:#5D5D5D;stroke:#5D5D5D;stroke-width:2;stroke-miterlimit:10;" d="M478.196,111.569L477.5,111l-20.373,49.526
	c-0.004-0.004-0.007-0.008-0.011-0.013c-0.399,0.962-0.793,1.926-1.188,2.889c-0.356,0.869-0.712,1.737-1.068,2.605
	c-0.032,0.079-0.055,0.164-0.097,0.238c-0.032,0.055-0.088,0.096-0.134,0.144c-0.038-0.049-0.091-0.091-0.111-0.146
	c-0.188-0.507-0.37-1.015-0.553-1.523c-0.773-2.137-1.547-4.274-2.32-6.411l0.016,0.01l-18.827-49.82l-0.736,0.013l18.606,49.185
	l0.015,0.01c0.552,1.439,1.105,2.878,1.657,4.316c0.13,0.339,0.263,0.677,0.388,1.018c0.02,0.053,0.003,0.12,0.004,0.181
	c-0.057-0.005-0.12,0.006-0.169-0.016c-0.573-0.264-1.144-0.532-1.715-0.801c-1.375-0.646-2.749-1.294-4.123-1.941
	c-0.822-0.387-1.645-0.771-2.466-1.16c-0.075-0.035-0.15-0.074-0.225-0.113l0.002-0.005l-0.09-0.042
	c-0.024-0.013-0.047-0.025-0.072-0.038c-0.001,0.001-0.002,0.002-0.004,0.003l-47.136-21.476l-0.437,0.53l47.473,21.586l0.008-0.016
	c0.553,0.266,1.104,0.535,1.657,0.801c1.101,0.53,2.204,1.055,3.305,1.587c0.079,0.038,0.141,0.112,0.211,0.169
	c-0.077,0.048-0.149,0.111-0.233,0.142c-2.881,1.075-5.764,2.146-8.646,3.219l-50.95,18.441l0.175,0.904l49.067-18.106
	c2.071-0.723,4.842-1.68,5.864-2.055c0.474-0.174,0.947-0.35,1.423-0.52c0.055-0.02,0.123-0.006,0.184-0.008
	c-0.008,0.061,0,0.129-0.025,0.182c-0.348,0.735-0.699,1.468-1.051,2.2c-0.72,1.497-1.442,2.993-2.163,4.489
	c-0.263,0.545-0.527,1.089-0.791,1.634l-25.407,50.443l0.732,0.574l25.06-50.338c0.006,0.007,0.01,0.014,0.016,0.02
	c0.545-1.143,1.089-2.286,1.632-3.43c0.345-0.725,0.688-1.451,1.032-2.176c0.013-0.027,0.022-0.058,0.041-0.081
	c0.04-0.047,0.085-0.09,0.128-0.134c0.038,0.049,0.092,0.091,0.11,0.146c0.305,0.888,0.606,1.778,0.906,2.668
	c0.562,1.669,1.123,3.339,1.684,5.009l14.96,46.051l0.597-0.068l-14.479-44.579c0.004,0,0.009,0.001,0.013,0.001
	c-0.441-1.31-0.883-2.621-1.325-3.93c-0.174-0.517-0.352-1.032-0.523-1.55c-0.025-0.075-0.015-0.161-0.021-0.242
	c0.081,0.014,0.168,0.013,0.24,0.046c0.603,0.27,1.204,0.547,1.806,0.82c0.915,0.414,1.831,0.826,2.746,1.241
	c0.759,0.344,1.517,0.688,2.275,1.034c0.052,0.024,0.103,0.047,0.154,0.071l56.949,26.294l0.497-0.706l-55.464-25.447
	c0.004-0.004,0.009-0.007,0.013-0.011c-0.464-0.217-0.929-0.434-1.395-0.645c-0.726-0.329-1.456-0.652-2.183-0.979
	c-0.677-0.304-1.352-0.61-2.028-0.916c-0.037-0.017-0.078-0.03-0.107-0.055c-0.031-0.027-0.077-0.075-0.07-0.099
	c0.012-0.04,0.057-0.082,0.097-0.099c0.191-0.079,0.386-0.149,0.58-0.222c2.145-0.807,4.29-1.615,6.434-2.423l56.023-20.047
	l-0.066-0.89l-53.899,19.485c0-0.007,0.001-0.013,0.001-0.02c-0.889,0.339-1.778,0.674-2.667,1.011l-1.507,0.56l-0.023,0.02
	c-0.108,0.041-0.215,0.082-0.323,0.122c-0.298,0.112-0.596,0.223-0.896,0.328c-0.056,0.02-0.123,0.011-0.185,0.015
	c0.001-0.066-0.017-0.139,0.007-0.196c0.214-0.518,0.436-1.032,0.654-1.549c0.373-0.883,0.745-1.767,1.119-2.65
	c0.045-0.106,0.09-0.212,0.135-0.318l-0.002,0.04L478.196,111.569z"/>
<circle style="fill:#FFFFFF;" cx="578.002" cy="167" r="55"/>
<path style="fill:#5D5D5D;stroke:#5D5D5D;stroke-width:2;stroke-miterlimit:10;" d="M575.667,111.667l-0.44-0.092l4.561,50.909
	c-0.003-0.001-0.005-0.002-0.008-0.003c0.045,0.519,0.093,1.037,0.14,1.556c0.043,0.467,0.085,0.935,0.128,1.402
	c0.004,0.043,0.013,0.086,0.012,0.128c-0.001,0.032-0.017,0.063-0.026,0.095c-0.028-0.013-0.061-0.02-0.083-0.039
	c-0.2-0.181-0.398-0.365-0.597-0.548c-0.836-0.769-1.673-1.538-2.509-2.308l0.009,0.001l-38.187-33.935l-0.323,0.176l37.943,33.705
	l0.009,0.001c0.577,0.511,1.154,1.021,1.732,1.532c0.136,0.12,0.273,0.24,0.407,0.362c0.021,0.019,0.029,0.052,0.043,0.079
	c-0.026,0.011-0.052,0.03-0.079,0.032c-0.315,0.015-0.63,0.028-0.945,0.041c-0.759,0.031-1.518,0.061-2.277,0.091
	c-0.454,0.018-0.908,0.038-1.361,0.055c-0.041,0.002-0.083,0.002-0.126,0.002l0-0.003l-0.05,0.002c-0.014,0-0.027,0-0.04,0
	c0,0.001-0.001,0.001-0.001,0.002l-51.193,2.754L522.333,168l51.368-2.783l0-0.009c0.307-0.01,0.613-0.018,0.92-0.027
	c0.611-0.019,1.221-0.041,1.832-0.059c0.044-0.001,0.088,0.017,0.133,0.026c-0.023,0.039-0.04,0.084-0.07,0.117
	c-1.03,1.142-2.061,2.283-3.091,3.424l-34.71,37.617l0.286,0.361l33.953-37.034c0.752-0.799,1.759-1.863,2.126-2.265
	c0.17-0.187,0.339-0.374,0.511-0.559c0.02-0.022,0.053-0.031,0.08-0.046c0.011,0.029,0.03,0.057,0.031,0.086
	c0.015,0.406,0.029,0.812,0.042,1.219c0.026,0.83,0.052,1.66,0.077,2.49c0.009,0.302,0.018,0.605,0.026,0.907l0.53,51.45
	l0.457,0.085l-0.66-51.324c0.004,0.002,0.008,0.004,0.012,0.005c-0.022-0.633-0.045-1.265-0.068-1.898
	c-0.015-0.401-0.03-0.802-0.045-1.203c-0.001-0.015-0.004-0.031,0-0.045c0.007-0.03,0.017-0.059,0.026-0.089
	c0.028,0.013,0.062,0.019,0.083,0.04c0.34,0.324,0.679,0.648,1.018,0.974c0.635,0.611,1.269,1.222,1.903,1.833L615,207.333
	l0.249-0.168l-35.345-35.499c0.002-0.001,0.004-0.002,0.006-0.002c-0.498-0.479-0.996-0.958-1.495-1.437
	c-0.197-0.189-0.394-0.376-0.59-0.567c-0.028-0.027-0.044-0.068-0.065-0.102c0.039-0.012,0.078-0.033,0.117-0.035
	c0.33-0.02,0.66-0.035,0.99-0.053c0.501-0.027,1.003-0.056,1.504-0.084c0.416-0.023,0.832-0.045,1.247-0.067
	c0.028-0.001,0.057-0.003,0.085-0.004L633.002,167l0.057-0.428l-50.443,2.347c0.001-0.003,0.002-0.005,0.003-0.008
	c-0.256,0.011-0.512,0.022-0.768,0.036c-0.398,0.022-0.796,0.047-1.194,0.07c-0.37,0.021-0.741,0.041-1.111,0.062
	c-0.02,0.001-0.041,0.005-0.06,0c-0.02-0.005-0.052-0.015-0.054-0.028c-0.004-0.02,0.006-0.049,0.02-0.066
	c0.067-0.079,0.137-0.155,0.206-0.232c0.765-0.853,1.53-1.707,2.294-2.56l34.949-37.98l-0.235-0.379l-34.137,37.24
	c-0.001-0.003-0.003-0.006-0.004-0.009c-0.316,0.355-0.633,0.71-0.95,1.064l-0.539,0.596l-0.006,0.014
	c-0.038,0.043-0.077,0.086-0.115,0.129c-0.106,0.119-0.213,0.237-0.322,0.353c-0.02,0.022-0.052,0.033-0.078,0.049
	c-0.015-0.029-0.04-0.058-0.042-0.088c-0.025-0.279-0.045-0.558-0.068-0.838c-0.038-0.478-0.077-0.956-0.116-1.434
	c-0.005-0.057-0.009-0.115-0.014-0.172l0.008,0.018L575.667,111.667z"/>
</svg>
