<?xml version="1.0" encoding="iso-8859-1"?>
<!-- Generator: Adobe Illustrator 20.0.0, SVG Export Plug-In . SVG Version: 6.00 Build 0)  -->
<svg version="1.1" id="Layer_1" xmlns="http://www.w3.org/2000/svg" xmlns:xlink="http://www.w3.org/1999/xlink" x="0px" y="0px"
	 viewBox="0 0 480 480" style="enable-background:new 0 0 480 480;" xml:space="preserve">
<path style="fill:#5D5D5D;stroke:#5D5D5D;stroke-width:2;stroke-miterlimit:10;" d="M235.271,81.748l-1.255-0.261l13.001,145.102
	c-0.007-0.003-0.015-0.006-0.022-0.009c0.129,1.478,0.266,2.956,0.4,4.434c0.122,1.332,0.242,2.664,0.364,3.997
	c0.011,0.122,0.038,0.244,0.033,0.365c-0.004,0.091-0.048,0.18-0.074,0.27c-0.08-0.036-0.175-0.056-0.236-0.112
	c-0.571-0.517-1.135-1.04-1.702-1.561c-2.384-2.192-4.768-4.385-7.152-6.577l0.027,0.003l-108.842-96.721l-0.922,0.501
	l108.144,96.065l0.026,0.002c1.645,1.456,3.29,2.911,4.935,4.366c0.388,0.343,0.779,0.683,1.161,1.032
	c0.06,0.055,0.083,0.15,0.123,0.226c-0.075,0.031-0.148,0.087-0.224,0.091c-0.898,0.043-1.796,0.08-2.694,0.116
	c-2.163,0.087-4.326,0.173-6.489,0.26c-1.293,0.052-2.587,0.108-3.88,0.157c-0.118,0.004-0.238,0.005-0.359,0.005l0-0.007
	l-0.141,0.006c-0.039,0-0.076,0-0.115-0.001c-0.001,0.002-0.002,0.004-0.003,0.006l-145.911,7.85l-0.204,0.958l146.409-7.931
	l-0.001-0.026c0.874-0.027,1.748-0.051,2.622-0.078c1.741-0.055,3.481-0.117,5.222-0.168c0.125-0.004,0.252,0.049,0.378,0.075
	c-0.066,0.112-0.115,0.239-0.2,0.333c-2.935,3.254-5.873,6.506-8.811,9.758l-98.931,107.217l0.816,1.028l96.772-105.555
	c2.143-2.277,5.014-5.31,6.06-6.457c0.485-0.532,0.967-1.066,1.457-1.593c0.057-0.061,0.151-0.088,0.228-0.131
	c0.031,0.082,0.085,0.163,0.089,0.246c0.044,1.158,0.082,2.315,0.119,3.473c0.074,2.366,0.147,4.732,0.219,7.098
	c0.026,0.862,0.05,1.724,0.075,2.586l1.511,146.643l1.303,0.243l-1.88-146.283c0.011,0.005,0.022,0.01,0.033,0.015
	c-0.062-1.803-0.128-3.606-0.193-5.41c-0.042-1.143-0.085-2.286-0.127-3.429c-0.002-0.043-0.01-0.088-0.001-0.129
	c0.019-0.086,0.048-0.169,0.073-0.254c0.079,0.037,0.176,0.055,0.236,0.113c0.97,0.922,1.936,1.848,2.901,2.776
	c1.809,1.74,3.617,3.482,5.425,5.223L347.38,354.417l0.709-0.479L247.348,252.758c0.006-0.002,0.012-0.005,0.018-0.007
	c-1.419-1.367-2.84-2.732-4.261-4.097c-0.56-0.538-1.124-1.073-1.681-1.615c-0.08-0.078-0.124-0.194-0.185-0.292
	c0.111-0.035,0.221-0.094,0.334-0.101c0.941-0.056,1.882-0.1,2.823-0.152c1.429-0.078,2.858-0.16,4.287-0.238
	c1.185-0.065,2.37-0.129,3.556-0.19c0.081-0.004,0.161-0.008,0.242-0.012l146.207-6.595l0.164-1.219l-143.772,6.688
	c0.003-0.007,0.006-0.015,0.009-0.022c-0.73,0.031-1.459,0.063-2.188,0.103c-1.135,0.062-2.269,0.134-3.403,0.199
	c-1.055,0.061-2.111,0.118-3.167,0.177c-0.057,0.003-0.118,0.014-0.172,0.001c-0.057-0.014-0.147-0.044-0.154-0.08
	c-0.011-0.058,0.018-0.141,0.058-0.189c0.19-0.225,0.39-0.442,0.587-0.662c2.18-2.432,4.359-4.865,6.539-7.297L352.8,128.907
	l-0.67-1.081l-97.296,106.143c-0.004-0.009-0.007-0.018-0.011-0.026c-0.9,1.013-1.804,2.023-2.706,3.033l-1.536,1.7l-0.017,0.041
	c-0.109,0.122-0.218,0.245-0.328,0.367c-0.302,0.338-0.607,0.674-0.917,1.005c-0.058,0.062-0.148,0.094-0.224,0.14
	c-0.042-0.084-0.113-0.165-0.121-0.252c-0.07-0.795-0.129-1.592-0.193-2.388c-0.109-1.362-0.221-2.724-0.33-4.087
	c-0.013-0.164-0.026-0.327-0.039-0.491l0.024,0.051L235.271,81.748z"/>
</svg>
