<?xml version="1.0" encoding="iso-8859-1"?>
<!-- Generator: Adobe Illustrator 19.1.0, SVG Export Plug-In . SVG Version: 6.00 Build 0)  -->
<svg version="1.1" id="Layer_1" xmlns="http://www.w3.org/2000/svg" xmlns:xlink="http://www.w3.org/1999/xlink" x="0px" y="0px"
	 viewBox="-76 130 638 354" style="enable-background:new -76 130 638 354;" xml:space="preserve">
<g>
	<g>
		<path style="fill:#FFFFFF;" d="M9.937,413.778h38.424v27.139h-70.467V317.641H9.937V413.778z"/>
		<path style="fill:#FFFFFF;" d="M103.946,344.782v20.598h36.135v27.142h-36.135v21.255h38.095v27.139H71.903V317.641h70.138v27.142
			h-38.095V344.782z"/>
		<path style="fill:#FFFFFF;" d="M169.386,317.641h32.043l58.696,75.371h0.326v-75.371h32.046v123.276h-32.046l-58.694-75.536
			h-0.328v75.536h-32.043L169.386,317.641L169.386,317.641z"/>
		<path style="fill:#FFFFFF;" d="M400.404,324.508l-12.754,24.853c-2.943-2.398-6.242-4.333-9.892-5.805
			c-3.652-1.472-7.44-2.207-11.363-2.207c-0.546,0-1.143,0.027-1.798,0.081c-0.654,0.057-1.309,0.193-1.963,0.41
			c-2.509,0.546-4.798,1.635-6.867,3.269c-2.072,1.635-3.106,3.817-3.106,6.541c0,2.615,0.983,4.714,2.943,6.294
			c1.963,1.58,4.087,2.859,6.376,3.842c0.872,0.326,1.719,0.627,2.536,0.899c0.817,0.274,1.607,0.519,2.37,0.736l8.176,2.289
			c8.608,2.615,15.83,6.405,21.663,11.363c5.83,4.961,8.746,12.452,8.746,22.48c0,0.437,0,0.874,0,1.309c0,0.437,0,0.874,0,1.306
			c-0.22,5.669-1.254,11.2-3.106,16.596c-1.854,5.395-5.067,10.055-9.645,13.978c-4.146,3.598-8.83,6.269-14.062,8.013
			c-5.232,1.741-10.573,2.832-16.023,3.269c-0.872,0-1.716,0.025-2.533,0.081c-0.817,0.054-1.61,0.081-2.37,0.081
			c-7.741,0-15.314-1.225-22.727-3.679c-7.413-2.452-14.28-5.857-20.601-10.218l13.734-25.996c4.032,3.598,8.42,6.65,13.161,9.156
			c4.743,2.509,9.837,3.761,15.287,3.761c0.217,0,0.435,0,0.654,0c0.217,0,0.435,0,0.654,0c3.598-0.217,6.867-1.333,9.81-3.351
			s4.415-5.042,4.415-9.074c0-3.049-1.227-5.504-3.679-7.358c-2.452-1.852-5.208-3.324-8.257-4.415
			c-1.309-0.432-2.615-0.842-3.924-1.225c-1.309-0.38-2.509-0.736-3.598-1.062c-0.22-0.109-0.464-0.19-0.736-0.247
			c-0.272-0.054-0.519-0.136-0.736-0.244c-9.702-2.724-17.44-6.213-23.216-10.465c-5.778-4.25-8.665-12.205-8.665-23.87
			c0-12.534,4.005-22.561,12.015-30.083c8.013-7.521,18.176-11.282,30.492-11.282c2.506,0,5.069,0.138,7.684,0.41
			c2.617,0.272,5.232,0.736,7.85,1.388c4.141,0.874,8.2,2.02,12.178,3.435c3.978,1.417,7.603,3.052,10.874,4.904v-0.163H400.404z"/>
	</g>
	<g>
		<path style="fill:#FFFFFF;" d="M52.774,179.787l-12.752,24.851c-2.943-2.397-6.242-4.333-9.892-5.803
			c-3.652-1.471-7.439-2.208-11.363-2.208c-0.546,0-1.144,0.027-1.798,0.083s-1.308,0.189-1.962,0.408
			c-2.508,0.544-4.798,1.633-6.868,3.27c-2.072,1.633-3.106,3.815-3.106,6.537c0,2.616,0.981,4.718,2.943,6.295
			c1.962,1.584,4.087,2.862,6.376,3.845c0.872,0.325,1.716,0.627,2.535,0.896c0.817,0.276,1.607,0.521,2.371,0.737l8.174,2.288
			c8.609,2.616,15.832,6.404,21.663,11.365c5.83,4.96,8.747,12.454,8.747,22.48c0,0.438,0,0.873,0,1.308c0,0.438,0,0.873,0,1.308
			c-0.219,5.667-1.253,11.199-3.106,16.594c-1.854,5.395-5.068,10.057-9.646,13.981c-4.143,3.596-8.828,6.268-14.061,8.011
			s-10.574,2.832-16.023,3.27c-0.873,0-1.716,0.023-2.535,0.08c-0.817,0.053-1.609,0.083-2.371,0.083
			c-7.741,0-15.314-1.225-22.726-3.679c-7.414-2.454-14.28-5.857-20.599-10.219l13.733-25.996c4.031,3.599,8.42,6.65,13.161,9.157
			c4.741,2.51,9.836,3.762,15.287,3.762c0.217,0,0.435,0,0.654,0c0.217,0,0.433,0,0.654,0c3.597-0.219,6.866-1.335,9.809-3.353
			c2.943-2.015,4.414-5.04,4.414-9.074c0-3.051-1.225-5.501-3.679-7.357c-2.452-1.853-5.206-3.323-8.255-4.416
			c-1.308-0.432-2.616-0.843-3.924-1.225c-1.308-0.382-2.508-0.737-3.597-1.062c-0.219-0.106-0.465-0.189-0.735-0.246
			c-0.274-0.053-0.518-0.136-0.735-0.246c-9.703-2.722-17.44-6.212-23.217-10.462c-5.779-4.253-8.665-12.208-8.665-23.871
			c0-12.533,4.006-22.563,12.017-30.083S1.87,169.814,14.19,169.814c2.505,0,5.068,0.136,7.684,0.408
			c2.615,0.272,5.231,0.737,7.847,1.391c4.142,0.873,8.201,2.015,12.18,3.433s7.603,3.051,10.873,4.904V179.787z"/>
		<path style="fill:#FFFFFF;" d="M122.095,296.196H90.05V200.06H63.564v-27.138h85.017v27.138h-26.486V296.196z"/>
		<path style="fill:#FFFFFF;" d="M368.971,245.674l38.749,50.522h-39.892l-30.248-47.414h-0.327v47.414h-32.045V172.922h47.905
			c12.205,0.11,22.399,3.187,30.573,9.236c8.176,6.049,12.263,15.671,12.263,28.858c0,8.499-2.317,16.049-6.949,22.643
			c-4.635,6.597-11.31,10.654-20.028,12.181L368.971,245.674L368.971,245.674z M337.253,228.181h3.106
			c0.544,0.11,1.089,0.163,1.635,0.163c0.544,0,1.036,0,1.472,0c4.794-0.216,9.182-1.331,13.161-3.35
			c3.977-2.015,5.968-6.023,5.968-12.019c0-6.056-1.99-10.103-5.968-12.142c-3.979-2.039-8.367-3.171-13.161-3.39
			c-0.437,0-0.928,0-1.472,0c-0.546,0-1.091,0-1.635,0h-3.106V228.181z"/>
		<path style="fill:#FFFFFF;" d="M396.275,172.922h38.422l23.053,33.516l23.053-33.516h38.422l-45.452,64.087v59.187h-32.045
			v-59.187L396.275,172.922z"/>
		<g id="_x38_aTFDm.tif_1_">
			<g>
				<path style="fill:#FFFFFF;" d="M163.473,255.35c-0.469-1.521-0.92-2.884-1.309-4.263c-1.807-6.396-2.515-12.925-2.201-19.554
					c0.304-6.41,1.601-12.626,3.862-18.64c0.225-0.598,0.53-0.79,1.133-0.81c8.154-0.28,16.308-0.577,24.462-0.874
					c4.892-0.178,9.784-0.363,14.676-0.544c0.185-0.007,0.378-0.043,0.553-0.003c0.367,0.083,0.724,0.207,1.086,0.314
					c-0.157,0.34-0.237,0.753-0.482,1.009c-3.947,4.15-7.909,8.286-11.879,12.413c-9.051,9.408-18.107,18.811-27.166,28.212
					C165.359,253.489,164.482,254.34,163.473,255.35z"/>
				<path style="fill:#FFFFFF;" d="M243.921,292.31c-1.66,0.525-3.306,1.098-4.982,1.565c-7.405,2.064-14.95,2.687-22.594,2.009
					c-5.264-0.467-10.391-1.612-15.378-3.385c-0.644-0.229-0.843-0.589-0.869-1.209c-0.145-3.381-0.29-6.762-0.476-10.14
					c-0.266-4.856-0.573-9.71-0.852-14.565c-0.26-4.517-0.506-9.035-0.756-13.553c-0.014-0.246-0.059-0.504-0.005-0.736
					c0.058-0.245,0.187-0.629,0.341-0.659c0.249-0.048,0.603,0.075,0.809,0.249c0.964,0.814,1.893,1.67,2.833,2.513
					c13.734,12.31,27.467,24.621,41.207,36.923c0.267,0.239,0.625,0.378,0.941,0.563
					C244.067,292.027,243.994,292.168,243.921,292.31z"/>
				<path style="fill:#FFFFFF;" d="M248.902,178.809c1.869,1.015,3.603,1.872,5.254,2.866c10.843,6.529,19.032,15.48,24.504,26.912
					c0.353,0.737,0.179,1.173-0.288,1.701c-7.142,8.064-14.276,16.136-21.411,24.206c-1.468,1.66-2.923,3.332-4.416,4.969
					c-0.234,0.257-0.64,0.356-0.967,0.528c-0.134-0.319-0.372-0.633-0.388-0.958c-0.185-3.843-0.343-7.687-0.498-11.53
					c-0.374-9.256-0.74-18.513-1.113-27.769c-0.223-5.535-0.462-11.07-0.67-16.606C248.858,181.78,248.902,180.427,248.902,178.809z
					"/>
				<path style="fill:#FFFFFF;" d="M201.01,176.444c2.424-0.662,4.832-1.392,7.276-1.972c5.425-1.288,10.942-1.711,16.505-1.498
					c6.793,0.26,13.367,1.647,19.72,4.049c0.312,0.118,0.592,0.754,0.607,1.159c0.178,4.923,0.289,9.848,0.445,14.772
					c0.235,7.449,0.499,14.897,0.721,22.346c0.016,0.536-0.21,1.079-0.323,1.618c-0.478-0.282-1.021-0.492-1.425-0.857
					c-14.019-12.643-28.024-25.301-42.033-37.955c-0.497-0.449-1.002-0.889-1.504-1.333
					C201.003,176.663,201.006,176.554,201.01,176.444z"/>
				<path style="fill:#FFFFFF;" d="M165.956,207.947c0.609-1.164,1.102-2.179,1.658-3.158c6.656-11.716,16.088-20.432,28.294-26.145
					c0.46-0.216,0.805-0.364,1.298,0.089c7.214,6.62,14.455,13.21,21.691,19.807c2.275,2.075,4.56,4.139,6.818,6.233
					c0.263,0.244,0.378,0.646,0.562,0.975c-0.351,0.131-0.697,0.365-1.053,0.379c-4.954,0.188-9.909,0.353-14.864,0.509
					c-10.126,0.318-20.251,0.63-30.377,0.939c-4.278,0.131-8.556,0.249-12.835,0.371
					C166.82,207.955,166.492,207.947,165.956,207.947z"/>
				<path style="fill:#FFFFFF;" d="M195.641,290.383c-2.065-1.123-3.967-2.061-5.773-3.157c-9.52-5.781-17.03-13.516-22.424-23.275
					c-0.774-1.4-1.432-2.863-2.18-4.277c-0.249-0.471-0.153-0.771,0.196-1.133c6.194-6.431,12.379-12.871,18.564-19.311
					c2.303-2.398,4.59-4.812,6.913-7.192c0.335-0.343,0.829-0.532,1.25-0.792c0.149,0.476,0.402,0.946,0.431,1.429
					c0.239,4.025,0.429,8.053,0.649,12.08c0.334,6.116,0.685,12.232,1.02,18.348c0.278,5.071,0.551,10.143,0.813,15.216
					c0.192,3.719,0.363,7.439,0.542,11.158C195.65,289.688,195.641,289.9,195.641,290.383z"/>
				<path style="fill:#FFFFFF;" d="M280.98,213.869c0.722,2.762,1.571,5.499,2.144,8.292c2.28,11.111,1.545,22.039-2.199,32.759
					c-0.202,0.577-0.457,0.787-1.088,0.841c-6.777,0.586-13.55,1.217-20.324,1.834c-5.701,0.52-11.402,1.037-17.103,1.557
					c-0.521,0.048-1.043,0.164-1.56,0.142c-0.389-0.017-0.77-0.205-1.155-0.317c0.156-0.341,0.239-0.748,0.479-1.012
					c2.212-2.442,4.452-4.859,6.682-7.284c10.591-11.516,21.182-23.031,31.772-34.548c0.682-0.742,1.357-1.491,2.036-2.236
					C280.768,213.888,280.874,213.879,280.98,213.869z"/>
				<path style="fill:#FFFFFF;" d="M278.916,259.914c-0.32,0.665-0.584,1.242-0.872,1.808
					c-5.871,11.571-14.491,20.492-25.834,26.782c-1.13,0.626-2.292,1.201-3.47,1.731c-0.251,0.113-0.739,0.048-0.943-0.132
					c-7.618-6.771-15.217-13.563-22.815-20.357c-1.446-1.293-2.885-2.596-4.3-3.923c-0.266-0.249-0.404-0.635-0.6-0.958
					c0.359-0.178,0.707-0.483,1.079-0.516c3.404-0.301,6.812-0.551,10.218-0.824c5.83-0.468,11.658-0.944,17.488-1.411
					c4.909-0.393,9.82-0.775,14.729-1.167c4.265-0.34,8.529-0.697,12.795-1.023C277.175,259.862,277.966,259.914,278.916,259.914z"
					/>
			</g>
		</g>
	</g>
</g>
</svg>
